# Blender 5.2.1 LTS
# www.blender.org
mtllib EvoluedGodzilla_leg_r.mtl
o Object_8
v 0.454867 0.356345 0.157098
v 0.539786 0.518818 -0.056005
v 0.381205 0.372474 0.163152
v 0.331542 0.194065 0.151036
v 0.408519 -0.475465 -0.682188
v 0.551406 -0.173697 -0.896445
v 0.571146 0.316369 0.147366
v 0.539786 0.518818 -0.056005
v 0.454867 0.356345 0.157098
v 0.626959 0.370556 -0.141241
v 0.676115 0.204222 -0.024398
v 0.648128 0.099106 -0.456705
v 0.736162 -0.078834 -0.331226
v 0.601877 -0.136644 -0.658513
v 0.685651 -0.293855 -0.512293
v 0.525322 -0.385226 -0.584651
v 0.551406 -0.173697 -0.896445
v 0.408519 -0.475465 -0.682188
v 0.230790 -0.542660 -0.359245
v 0.160331 -0.460477 -0.148767
v 0.226672 -0.271911 0.038011
v 0.311791 -0.641716 0.137035
v 0.382197 -0.905321 0.055632
v 0.430864 -0.912442 0.202626
v 0.458878 -1.053374 0.201768
v 0.458862 -0.940547 -0.128545
v 0.486468 -1.041779 -0.137855
v 0.452734 -1.205899 0.144881
v 0.598818 -0.631019 -0.395968
v 0.770894 -0.493060 -0.335283
v 0.674379 -0.841389 -0.202324
v 0.696244 -0.970076 -0.223141
v 0.480622 -1.170330 -0.199595
v 0.469573 -1.425847 0.034658
v 0.703672 -1.114237 -0.294524
v 0.962151 -0.940420 -0.015841
v 0.508077 -1.419889 -0.249967
v 0.508696 -1.726738 -0.023773
v 0.579021 -1.721223 -0.317018
v 0.513060 -1.999682 -0.092723
v 0.548399 -2.004559 -0.294303
v 0.731746 -1.393062 -0.346010
v 0.913639 -0.724038 0.010837
v 0.563600 -1.990268 -0.421056
v 0.543922 -2.086269 -0.295642
v 0.597976 -2.072915 -0.449637
v 0.698856 -1.952251 -0.508750
v 0.692192 -2.078598 -0.471679
v 0.768361 -1.740099 -0.385145
v 0.856390 -1.999269 -0.396981
v 0.839663 -2.097209 -0.414146
v 0.954767 -1.768432 -0.212056
v 0.954366 -1.997949 -0.245914
v 0.951271 -1.986848 0.044581
v 0.972356 -1.404668 -0.145969
v 0.938078 -1.793437 0.053343
v 0.837197 -1.999017 0.114998
v 0.975623 -1.113156 -0.072974
v 0.933249 -1.449978 0.157563
v 0.762654 -1.790281 0.139589
v 0.709241 -2.004683 0.126142
v 0.577202 -1.762867 0.087494
v 0.573237 -2.012737 0.054771
v 0.513060 -1.999682 -0.092723
v 0.508696 -1.726738 -0.023773
v 0.469573 -1.425847 0.034658
v 0.772827 -1.475186 0.261997
v 0.588119 -1.457886 0.239160
v 0.452734 -1.205899 0.144881
v 0.605835 -1.200940 0.372877
v 0.458878 -1.053374 0.201768
v 0.794338 -1.194642 0.413852
v 0.588964 -1.022823 0.458881
v 0.430864 -0.912442 0.202626
v 0.959798 -1.158558 0.304354
v 0.809628 -1.015176 0.532280
v 0.987469 -0.980807 0.402056
v 0.537050 -0.840962 0.499884
v 0.311791 -0.641716 0.137035
v 0.778817 -0.801859 0.575035
v 0.446874 -0.471280 0.430032
v 0.226672 -0.271911 0.038011
v 0.970853 -0.765711 0.434086
v 0.698353 -0.401648 0.491207
v 0.566235 0.106179 0.268781
v 0.907347 -0.429776 0.339956
v 0.910283 -0.515978 -0.004305
v 0.781982 -0.027279 0.117826
v 0.824653 -0.279177 -0.180847
v 0.331542 0.194065 0.151036
v 0.352615 -0.032337 0.188147
v 0.273311 -0.012728 0.114384
v 0.597976 -2.072915 -0.449637
v 0.692192 -2.078598 -0.471679
v 0.692464 -2.218251 -0.406279
v 0.557882 -2.317690 -0.337844
v 0.477784 -2.313739 -0.263813
v 0.543922 -2.086269 -0.295642
v 0.428357 -2.298135 -0.075486
v 0.474707 -2.102684 -0.048793
v 0.513060 -1.999682 -0.092723
v 0.548399 -2.004559 -0.294303
v 0.573237 -2.012737 0.054771
v 0.465331 -2.129273 0.084913
v 0.384977 -2.189392 0.194621
v 0.368941 -2.300199 0.140315
v 0.337155 -2.335370 0.281145
v 0.439838 -2.311584 0.189654
v 0.530551 -2.301877 0.120515
v 0.575202 -2.169677 0.132011
v 0.593151 -2.291318 0.131026
v 0.635142 -2.289110 0.202732
v 0.640333 -2.142245 0.214149
v 0.709241 -2.004683 0.126142
v 0.657374 -2.289899 0.316267
v 0.745864 -2.090400 0.315924
v 0.867363 -2.177663 0.227867
v 0.837197 -1.999017 0.114998
v 0.951271 -1.986848 0.044581
v 0.766920 -2.170109 0.465330
v 0.707438 -2.297299 0.445393
v 0.787781 -2.350294 0.569991
v 0.804565 -2.300232 0.447105
v 0.824002 -2.290397 0.315215
v 0.879939 -2.275844 0.233895
v 1.003668 -2.111045 0.215862
v 1.059329 -2.196422 0.343101
v 1.007032 -2.280076 0.347361
v 1.067639 -2.329608 0.396346
v 1.073255 -2.291248 0.300038
v 1.042531 -2.301930 0.172210
v 1.032655 -2.145568 0.042728
v 1.028726 -2.310681 0.020579
v 1.059352 -2.146718 -0.074462
v 0.954366 -1.997949 -0.245914
v 1.130748 -2.271310 0.037728
v 1.084938 -2.321770 0.052323
v 1.129307 -2.334362 0.141143
v 1.136338 -2.335216 0.010396
v 1.109108 -2.336596 -0.101516
v 0.964858 -2.307729 -0.306515
v 0.960612 -2.106732 -0.269948
v 0.856390 -1.999269 -0.396981
v 0.839663 -2.097209 -0.414146
v 0.806607 -2.240433 -0.435095
v 0.812720 -2.314427 -0.387950
v 0.557882 -2.317690 -0.337844
v 0.692464 -2.218251 -0.406279
v 0.692192 -2.078598 -0.471679
v 1.067639 -2.329608 0.396346
v 1.007032 -2.280076 0.347361
v 1.073255 -2.291248 0.300038
v 0.989749 -2.310817 0.206525
v 1.042531 -2.301930 0.172210
v 0.879939 -2.275844 0.233895
v 0.966553 -2.305263 0.147056
v 0.775461 -2.328557 0.008319
v 0.739600 -2.306705 0.220798
v 1.028726 -2.310681 0.020579
v 0.824002 -2.290397 0.315215
v 0.928851 -2.337911 -0.078238
v 0.741205 -2.318137 0.309976
v 0.804565 -2.300232 0.447105
v 0.707438 -2.297299 0.445393
v 0.787781 -2.350294 0.569991
v 0.657374 -2.289899 0.316267
v 0.635142 -2.289110 0.202732
v 0.593151 -2.291318 0.131026
v 0.548084 -2.326477 -0.021415
v 0.530551 -2.301877 0.120515
v 0.439838 -2.311584 0.189654
v 0.368941 -2.300199 0.140315
v 0.337155 -2.335370 0.281145
v 0.463093 -2.325192 -0.054026
v 0.428357 -2.298135 -0.075486
v 0.477784 -2.313739 -0.263813
v 0.614573 -2.340084 -0.127384
v 0.550495 -2.344450 -0.259757
v 0.557882 -2.317690 -0.337844
v 0.812720 -2.314427 -0.387950
v 0.864048 -2.342074 -0.321303
v 0.964858 -2.307729 -0.306515
v 0.865218 -2.343078 -0.184908
v 0.967337 -2.334689 -0.229845
v 1.109108 -2.336596 -0.101516
v 1.069076 -2.358114 -0.071385
v 1.136338 -2.335216 0.010396
v 1.107018 -2.358203 0.026312
v 1.084938 -2.321770 0.052323
v 1.129307 -2.334362 0.141143
v 0.523512 0.032336 -0.785377
v 0.529570 0.202502 -0.660206
v 0.605914 0.448083 -0.390412
v 0.435895 0.222526 -0.001544
v 0.489026 0.324179 -0.134875
v 0.389808 0.232617 0.002244
v 0.358735 0.120993 -0.005337
v 0.406897 -0.297908 -0.526655
v 0.496296 -0.109102 -0.660707
v 0.489026 0.324179 -0.134875
v 0.496296 -0.109102 -0.660707
v 0.406897 -0.297908 -0.526655
v 0.295698 -0.339949 -0.324601
v 0.251615 -0.288530 -0.192913
v 0.293122 -0.170552 -0.076052
v 0.293122 -0.170552 -0.076052
v 0.358735 0.120993 -0.005337
v 0.322302 -0.008390 -0.028269
v 0.478844 0.019805 -0.591217
v 0.482635 0.126272 -0.512901
v 0.530400 0.279923 -0.344101
v 0.404186 -0.001139 -0.266698
vn 0.2773 0.8466 0.4543
vn -0.2055 0.9745 0.0900
vn -0.9219 -0.3594 -0.1447
vn 0.5846 0.5425 0.6033
vn 0.6052 0.7649 0.2204
vn 0.3626 -0.1630 0.9176
vn 0.9313 0.3584 0.0648
vn 0.9188 0.3917 0.0482
vn 0.9345 0.2007 -0.2941
vn 0.9393 0.2149 -0.2675
vn 0.9294 -0.0136 -0.3688
vn 0.7889 -0.1465 -0.5969
vn 0.5872 -0.6259 -0.5133
vn 0.9212 -0.1201 -0.3701
vn 0.6710 -0.6805 -0.2943
vn -0.8063 -0.1593 0.5697
vn -0.6897 0.4037 -0.6011
vn -0.9009 -0.2109 0.3794
vn -0.9923 -0.1039 0.0678
vn -0.9086 -0.4158 0.0388
vn -0.9111 -0.3028 0.2799
vn -0.9404 -0.2380 0.2429
vn -0.6977 -0.4499 -0.5575
vn -0.8363 0.0509 -0.5460
vn -0.9665 -0.1238 0.2249
vn 0.2406 -0.5675 -0.7874
vn 0.7994 -0.2028 -0.5656
vn 0.3387 -0.2625 -0.9035
vn 0.1224 0.2917 -0.9487
vn -0.8113 0.1522 -0.5645
vn -0.9752 -0.1610 0.1519
vn 0.0878 0.3077 -0.9474
vn 0.8890 0.1777 -0.4220
vn -0.7982 0.0023 -0.6024
vn -0.9844 -0.1067 0.1401
vn -0.7716 0.1399 -0.6205
vn -0.9877 0.1507 0.0419
vn -0.9817 0.0970 -0.1642
vn 0.1461 0.1585 -0.9765
vn 0.9280 0.0426 -0.3702
vn -0.8481 0.0693 -0.5252
vn -0.9573 0.1456 -0.2498
vn -0.5960 -0.1945 -0.7791
vn 0.0183 0.1660 -0.9860
vn 0.0320 -0.2529 -0.9670
vn 0.2759 0.2993 -0.9134
vn 0.6874 0.0842 -0.7214
vn 0.5659 -0.0803 -0.8205
vn 0.9324 0.0865 -0.3509
vn 0.9222 0.1487 -0.3569
vn 0.8141 0.3775 0.4413
vn 0.9216 0.0606 -0.3833
vn 0.8597 -0.0676 0.5064
vn 0.3041 0.4031 0.8631
vn 0.9029 0.1241 -0.4115
vn 0.8543 -0.2274 0.4674
vn 0.1113 -0.1793 0.9775
vn -0.1844 0.3943 0.9003
vn -0.6564 -0.1938 0.7291
vn -0.7089 0.2770 0.6487
vn -0.9875 0.1514 0.0441
vn -0.9836 -0.1074 0.1447
vn -0.9743 -0.1623 0.1563
vn 0.1743 -0.4192 0.8910
vn -0.5665 -0.3543 0.7440
vn -0.9652 -0.1256 0.2292
vn -0.5367 -0.3928 0.7468
vn -0.9392 -0.2382 0.2474
vn 0.1995 -0.4996 0.8429
vn -0.5684 -0.3447 0.7471
vn -0.9106 -0.3021 0.2820
vn 0.8730 -0.2795 0.3997
vn 0.2089 -0.3468 0.9144
vn 0.8957 -0.1284 0.4258
vn -0.6137 -0.1486 0.7754
vn -0.9009 -0.2109 0.3795
vn 0.1683 0.0250 0.9854
vn -0.6409 0.0807 0.7633
vn -0.6763 -0.1156 0.7275
vn 0.8801 0.1582 0.4477
vn 0.1692 0.3490 0.9217
vn 0.1370 0.3991 0.9066
vn 0.8706 0.3244 0.3698
vn 0.9784 0.0940 -0.1839
vn 0.8782 0.4144 0.2390
vn 0.9506 0.1859 -0.2486
vn -0.7254 0.2222 0.6515
vn -0.6300 0.1421 0.7635
vn -0.9878 0.0860 -0.1299
vn -0.5959 -0.1944 -0.7792
vn 0.0274 -0.2551 -0.9665
vn -0.1567 -0.2873 -0.9449
vn -0.4988 -0.2717 -0.8230
vn -0.5839 -0.8101 0.0521
vn -0.9567 0.1480 -0.2507
vn -0.9188 0.3182 -0.2334
vn -0.9317 0.3623 -0.0244
vn -0.9871 0.1540 0.0435
vn -0.7077 0.2821 0.6478
vn -0.6375 0.6006 0.4826
vn -0.3731 0.7417 0.5574
vn -0.1357 -0.9877 -0.0782
vn -0.2998 0.6238 0.7218
vn 0.9517 0.1314 0.2775
vn 0.2104 0.0809 0.9743
vn -0.6008 0.1393 0.7872
vn 0.3005 -0.8667 0.3980
vn -0.9533 -0.0847 0.2900
vn -0.7772 0.3221 0.5406
vn -0.1845 0.3967 0.8992
vn -0.8790 0.2848 0.3825
vn -0.0524 0.7286 0.6830
vn 0.3848 0.4100 0.8269
vn 0.3032 0.4054 0.8624
vn 0.8124 0.3827 0.4399
vn 0.1103 0.7507 0.6513
vn -0.1568 -0.9871 -0.0325
vn 0.1196 0.5678 0.8144
vn 0.0917 -0.9794 -0.1798
vn 0.9005 0.2167 0.3770
vn 0.2941 0.0251 0.9555
vn 0.5505 0.6346 0.5424
vn 0.4306 0.6755 0.5986
vn -0.2989 -0.9521 0.0650
vn 0.5265 0.4076 0.7461
vn 0.0187 -0.9996 -0.0204
vn 0.9332 0.0204 0.3588
vn 0.8948 0.3849 0.2264
vn 0.3568 -0.2959 0.8861
vn 0.9016 0.4036 -0.1555
vn 0.9208 0.1535 -0.3585
vn 0.7685 0.4440 0.4607
vn -0.4264 -0.6550 0.6238
vn -0.1962 -0.9405 0.2775
vn 0.5419 -0.8366 -0.0802
vn 0.6303 -0.7647 0.1338
vn 0.7271 0.1522 -0.6694
vn 0.8228 0.1205 -0.5554
vn 0.6892 0.0833 -0.7198
vn 0.5674 -0.0818 -0.8194
vn 0.2594 -0.2622 -0.9295
vn 0.0396 -0.9046 -0.4244
vn -0.4968 -0.2729 -0.8238
vn -0.1560 -0.2852 -0.9457
vn 0.0314 -0.2551 -0.9664
vn 0.5266 0.4075 0.7461
vn -0.3007 -0.9518 0.0609
vn 0.0162 -0.9996 -0.0242
vn -0.0740 -0.9930 0.0923
vn 0.9331 0.0228 0.3589
vn 0.2943 0.0236 0.9554
vn -0.0433 -0.9943 0.0971
vn -0.0030 -0.9915 0.1298
vn -0.0011 -0.9997 0.0263
vn 0.3543 -0.2985 0.8862
vn 0.8999 0.2190 0.3771
vn -0.0271 -0.9953 0.0933
vn -0.0038 -1.0000 0.0002
vn -0.1569 -0.9871 -0.0324
vn -0.8790 0.2848 0.3824
vn -0.9538 -0.0856 0.2880
vn 0.2989 -0.8678 0.3970
vn -0.0304 -0.9924 0.1193
vn 0.2079 0.0811 0.9748
vn -0.2985 -0.9539 -0.0298
vn -0.9196 0.3160 -0.2335
vn -0.5807 -0.8125 0.0516
vn -0.0251 -0.9975 0.0658
vn -0.2016 -0.9665 -0.1590
vn 0.1631 -0.9368 -0.3095
vn 0.7274 0.1498 -0.6697
vn 0.0308 -0.9993 0.0229
vn 0.1720 -0.9672 -0.1871
vn 0.6285 -0.7660 0.1349
vn 0.0876 -0.9961 -0.0054
vn 0.5398 -0.8380 -0.0799
vn 0.0169 -0.9892 0.1458
vn -0.4280 -0.6554 0.6224
vn -0.0913 0.3836 -0.9190
vn -0.1160 0.7059 -0.6987
vn 0.1913 0.8476 -0.4949
vn -0.9289 0.2391 -0.2827
vn -0.2425 0.7769 -0.5811
vn -0.8506 -0.2681 -0.4524
vn -0.8933 0.2890 -0.3443
vn -0.7736 0.1933 -0.6035
vn -0.9486 0.2661 0.1713
vn -0.9943 -0.0112 -0.1060
vn -0.9587 0.0921 -0.2690
vn -0.9187 0.3691 -0.1408
vn -0.8934 0.3309 -0.3039
vn -0.8739 0.2807 0.3969
vn -0.4268 0.8449 -0.3225
vn -0.9514 0.2874 -0.1105
vn 0.9418 -0.3038 0.1437
vn 0.4039 0.7468 -0.5283
vn -0.9064 0.4057 0.1180
vn -0.9485 0.2443 -0.2017
vn -0.9828 -0.1004 -0.1553
vn -0.9134 0.2772 -0.2981
vn -0.9741 0.2015 0.1023
vn -0.4327 0.6748 -0.5978
vt 0.380127 0.435059
vt 0.368652 0.439453
vt 0.378662 0.470703
vt 0.701660 0.149902
vt 0.732910 0.110352
vt 0.685059 0.133789
vt 0.754395 0.137695
vt 0.739746 0.170410
vt 0.820312 0.177246
vt 0.804199 0.215332
vt 0.865234 0.208984
vt 0.845215 0.246094
vt 0.878418 0.259766
vt 0.908203 0.201660
vt 0.909180 0.258789
vt 0.983887 0.366211
vt 0.965820 0.343262
vt 0.956543 0.399902
vt 0.929688 0.315918
vt 0.913574 0.412598
vt 0.931641 0.430176
vt 0.924316 0.442383
vt 0.875488 0.397461
vt 0.864258 0.420898
vt 0.914062 0.461426
vt 0.855957 0.316406
vt 0.820312 0.291992
vt 0.830566 0.371094
vt 0.820801 0.400879
vt 0.854004 0.445801
vt 0.893555 0.496094
vt 0.813477 0.432129
vt 0.754883 0.385742
vt 0.842285 0.491211
vt 0.880371 0.545654
vt 0.825195 0.545166
vt 0.872070 0.593018
vt 0.835938 0.596191
vt 0.799316 0.482910
vt 0.761719 0.344727
vt 0.813965 0.594971
vt 0.835938 0.611572
vt 0.804199 0.610107
vt 0.788086 0.586426
vt 0.786133 0.609619
vt 0.781738 0.543701
vt 0.754395 0.586182
vt 0.755371 0.605713
vt 0.731934 0.535645
vt 0.724609 0.575928
vt 0.674316 0.559570
vt 0.740723 0.471191
vt 0.678223 0.525635
vt 0.650879 0.557861
vt 0.750000 0.418457
vt 0.679688 0.462891
vt 0.639648 0.519775
vt 0.628906 0.557129
vt 0.600586 0.517334
vt 0.603516 0.562012
vt 0.575195 0.565430
vt 0.576660 0.517578
vt 0.560547 0.465332
vt 0.641113 0.459961
vt 0.603027 0.457031
vt 0.556641 0.416992
vt 0.605957 0.405762
vt 0.554199 0.380859
vt 0.641602 0.405762
vt 0.604980 0.370117
vt 0.550293 0.342773
vt 0.680664 0.407715
vt 0.644531 0.372070
vt 0.682129 0.375977
vt 0.604492 0.336426
vt 0.551758 0.270996
vt 0.645508 0.339355
vt 0.611328 0.269043
vt 0.570312 0.194824
vt 0.685547 0.342773
vt 0.656250 0.274902
vt 0.677246 0.184082
vt 0.700684 0.290039
vt 0.761230 0.305664
vt 0.724609 0.217285
vt 0.785156 0.257812
vt 0.646973 0.145508
vt 0.625488 0.180664
vt 0.612793 0.166016
vt 0.454834 0.410156
vt 0.457520 0.399414
vt 0.442139 0.395020
vt 0.423096 0.409180
vt 0.417480 0.422852
vt 0.447510 0.430176
vt 0.408691 0.445801
vt 0.431396 0.460449
vt 0.446533 0.459473
vt 0.457031 0.434570
vt 0.445312 0.479004
vt 0.422607 0.478027
vt 0.403809 0.482422
vt 0.392090 0.469727
vt 0.381592 0.488770
vt 0.399170 0.499512
vt 0.412109 0.504395
vt 0.428711 0.496582
vt 0.417480 0.507812
vt 0.422607 0.514893
vt 0.439941 0.506348
vt 0.460449 0.492188
vt 0.428467 0.527344
vt 0.458252 0.519043
vt 0.484375 0.523438
vt 0.478027 0.495117
vt 0.492432 0.484863
vt 0.453857 0.540283
vt 0.435303 0.544922
vt 0.448975 0.566895
vt 0.466797 0.554688
vt 0.479980 0.542969
vt 0.489746 0.535645
vt 0.503906 0.510010
vt 0.515625 0.527100
vt 0.510742 0.539551
vt 0.526367 0.542236
vt 0.529297 0.525391
vt 0.532227 0.509033
vt 0.516602 0.487305
vt 0.538574 0.495605
vt 0.519531 0.469727
vt 0.494385 0.447266
vt 0.542480 0.479004
vt 0.545410 0.489258
vt 0.557129 0.486328
vt 0.549316 0.471680
vt 0.543945 0.459961
vt 0.532227 0.431152
vt 0.507812 0.441895
vt 0.488525 0.424805
vt 0.499756 0.417969
vt 0.516113 0.407715
vt 0.527344 0.405762
vt 0.521484 0.372559
vt 0.511230 0.393066
vt 0.495605 0.396973
vt 0.481689 0.238770
vt 0.485352 0.246582
vt 0.490967 0.241211
vt 0.497803 0.249512
vt 0.501465 0.245117
vt 0.494141 0.259766
vt 0.502930 0.252441
vt 0.513672 0.270508
vt 0.494629 0.272461
vt 0.514160 0.248047
vt 0.487061 0.264160
vt 0.522461 0.257812
vt 0.486816 0.271484
vt 0.475342 0.264648
vt 0.474609 0.274414
vt 0.463379 0.265625
vt 0.485596 0.279297
vt 0.495361 0.281738
vt 0.500977 0.286133
vt 0.515137 0.291016
vt 0.501953 0.291504
vt 0.495605 0.299316
vt 0.499756 0.306152
vt 0.486816 0.307617
vt 0.517090 0.298340
vt 0.519043 0.302246
vt 0.535645 0.299316
vt 0.524414 0.285645
vt 0.535645 0.291992
vt 0.542969 0.292480
vt 0.549316 0.270020
vt 0.543457 0.265137
vt 0.543457 0.255859
vt 0.531250 0.264160
vt 0.536133 0.255371
vt 0.526367 0.241211
vt 0.522949 0.244629
vt 0.517090 0.236816
vt 0.515137 0.239746
vt 0.512695 0.242188
vt 0.505371 0.235840
vt 0.882324 0.171875
vt 0.854980 0.147949
vt 0.796387 0.117676
vt 0.000000 0.000000
s 1
usemtl Con1000_skin_61_march20228
f 1/1/1 3/2/2 4/3/3
f 7/4/4 8/5/5 9/6/6
f 8/5/5 7/4/4 10/7/7
f 10/7/7 7/4/4 11/8/8
f 12/9/9 10/7/7 11/8/8
f 11/8/8 13/10/10 12/9/9
f 14/11/11 12/9/9 13/10/10
f 13/10/10 15/12/12 14/11/11
f 16/13/13 14/11/11 15/12/12
f 17/14/14 14/11/11 16/13/13
f 18/15/15 17/14/14 16/13/13
f 21/16/16 20/17/17 22/18/18
f 16/13/13 19/19/19 18/15/15
f 22/18/18 20/17/17 23/20/20
f 22/18/18 23/20/20 24/21/21
f 23/20/20 25/22/22 24/21/21
f 20/17/17 19/19/19 26/23/23
f 26/23/23 23/20/20 20/17/17
f 27/24/24 25/22/22 23/20/20
f 23/20/20 26/23/23 27/24/24
f 28/25/25 25/22/22 27/24/24
f 19/19/19 16/13/13 29/26/26
f 26/23/23 19/19/19 29/26/26
f 16/13/13 30/27/27 29/26/26
f 15/12/12 30/27/27 16/13/13
f 31/28/28 26/23/23 29/26/26
f 31/28/28 29/26/26 30/27/27
f 32/29/29 27/24/24 26/23/23
f 31/28/28 32/29/29 26/23/23
f 27/24/24 33/30/30 28/25/25
f 33/30/30 34/31/31 28/25/25
f 32/29/29 35/32/32 27/24/24
f 35/32/32 33/30/30 27/24/24
f 36/33/33 32/29/29 31/28/28
f 35/32/32 32/29/29 36/33/33
f 37/34/34 34/31/31 33/30/30
f 38/35/35 34/31/31 37/34/34
f 37/34/34 39/36/36 38/35/35
f 39/36/36 40/37/37 38/35/35
f 41/38/38 40/37/37 39/36/36
f 42/39/39 37/34/34 33/30/30
f 42/39/39 33/30/30 35/32/32
f 37/34/34 42/39/39 39/36/36
f 43/40/40 36/33/33 31/28/28
f 30/27/27 43/40/40 31/28/28
f 41/38/38 39/36/36 44/41/41
f 45/42/42 41/38/38 44/41/41
f 46/43/43 45/42/42 44/41/41
f 44/41/41 47/44/44 46/43/43
f 44/41/41 39/36/36 47/44/44
f 46/43/43 47/44/44 48/45/45
f 39/36/36 49/46/46 47/44/44
f 49/46/46 39/36/36 42/39/39
f 48/45/45 47/44/44 50/47/47
f 47/44/44 49/46/46 50/47/47
f 50/47/47 51/48/48 48/45/45
f 52/49/49 50/47/47 49/46/46
f 53/50/50 50/47/47 52/49/49
f 54/51/51 53/50/50 52/49/49
f 55/52/52 49/46/46 42/39/39
f 52/49/49 49/46/46 55/52/52
f 52/49/49 56/53/53 54/51/51
f 56/53/53 52/49/49 55/52/52
f 54/51/51 56/53/53 57/54/54
f 58/55/55 55/52/52 42/39/39
f 42/39/39 35/32/32 58/55/55
f 36/33/33 58/55/55 35/32/32
f 55/52/52 58/55/55 59/56/56
f 55/52/52 59/56/56 56/53/53
f 57/54/54 56/53/53 60/57/57
f 61/58/58 57/54/54 60/57/57
f 62/59/59 61/58/58 60/57/57
f 63/60/60 61/58/58 62/59/59
f 64/61/61 63/60/60 62/59/59
f 62/59/59 65/62/62 64/61/61
f 65/62/62 62/59/59 66/63/63
f 67/64/64 60/57/57 56/53/53
f 62/59/59 60/57/57 67/64/64
f 56/53/53 59/56/56 67/64/64
f 68/65/65 66/63/63 62/59/59
f 67/64/64 68/65/65 62/59/59
f 69/66/66 66/63/63 68/65/65
f 69/66/66 68/65/65 70/67/67
f 68/65/65 67/64/64 70/67/67
f 71/68/68 69/66/66 70/67/67
f 72/69/69 67/64/64 59/56/56
f 70/67/67 67/64/64 72/69/69
f 70/67/67 73/70/70 71/68/68
f 70/67/67 72/69/69 73/70/70
f 73/70/70 74/71/71 71/68/68
f 59/56/56 75/72/72 72/69/69
f 75/72/72 59/56/56 58/55/55
f 58/55/55 36/33/33 75/72/72
f 76/73/73 72/69/69 75/72/72
f 73/70/70 72/69/69 76/73/73
f 77/74/74 75/72/72 36/33/33
f 75/72/72 77/74/74 76/73/73
f 77/74/74 36/33/33 43/40/40
f 74/71/71 73/70/70 78/75/75
f 79/76/76 74/71/71 78/75/75
f 73/70/70 76/73/73 80/77/77
f 80/77/77 76/73/73 77/74/74
f 80/77/77 78/75/75 73/70/70
f 78/75/75 81/78/78 79/76/76
f 82/79/79 79/76/76 81/78/78
f 43/40/40 83/80/80 77/74/74
f 77/74/74 83/80/80 80/77/77
f 78/75/75 80/77/77 84/81/81
f 84/81/81 81/78/78 78/75/75
f 81/78/78 84/81/81 85/82/82
f 80/77/77 83/80/80 86/83/83
f 86/83/83 84/81/81 80/77/77
f 83/80/80 43/40/40 86/83/83
f 85/82/82 84/81/81 86/83/83
f 87/84/84 86/83/83 43/40/40
f 43/40/40 30/27/27 87/84/84
f 88/85/85 86/83/83 87/84/84
f 86/83/83 88/85/85 85/82/82
f 87/84/84 30/27/27 89/86/86
f 87/84/84 89/86/86 88/85/85
f 30/27/27 15/12/12 89/86/86
f 13/10/10 89/86/86 15/12/12
f 89/86/86 13/10/10 88/85/85
f 11/8/8 88/85/85 13/10/10
f 11/8/8 7/4/4 88/85/85
f 88/85/85 7/4/4 85/82/82
f 7/4/4 9/6/6 85/82/82
f 9/6/6 90/87/87 85/82/82
f 91/88/88 85/82/82 90/87/87
f 91/88/88 81/78/78 85/82/82
f 91/88/88 82/79/79 81/78/78
f 91/88/88 90/87/87 92/89/89
f 92/89/89 82/79/79 91/88/88
f 93/90/90 94/91/91 95/92/92
f 96/93/93 93/90/90 95/92/92
f 97/94/94 93/90/90 96/93/93
f 98/95/95 93/90/90 97/94/94
f 97/94/94 99/96/96 98/95/95
f 98/95/95 99/96/96 100/97/97
f 98/95/95 100/97/97 101/98/98
f 102/99/38 98/95/95 101/98/98
f 101/98/98 100/97/97 103/100/99
f 99/96/96 104/101/100 100/97/97
f 100/97/97 104/101/100 103/100/99
f 99/96/96 105/102/101 104/101/100
f 106/103/102 105/102/101 99/96/96
f 107/104/103 105/102/101 106/103/102
f 105/102/101 107/104/103 108/105/104
f 108/105/104 104/101/100 105/102/101
f 109/106/105 104/101/100 108/105/104
f 109/106/105 110/107/106 104/101/100
f 110/107/106 103/100/99 104/101/100
f 111/108/107 110/107/106 109/106/105
f 111/108/107 112/109/108 110/107/106
f 103/100/99 110/107/106 113/110/109
f 113/110/109 110/107/106 112/109/108
f 114/111/110 103/100/99 113/110/109
f 112/109/108 115/112/111 113/110/109
f 116/113/112 114/111/110 113/110/109
f 113/110/109 115/112/111 116/113/112
f 114/111/110 116/113/112 117/114/113
f 117/114/113 118/115/114 114/111/110
f 119/116/115 118/115/114 117/114/113
f 116/113/112 115/112/111 120/117/116
f 115/112/111 121/118/117 120/117/116
f 120/117/116 121/118/117 122/119/118
f 122/119/118 123/120/119 120/117/116
f 120/117/116 123/120/119 124/121/120
f 124/121/120 116/113/112 120/117/116
f 117/114/113 116/113/112 124/121/120
f 125/122/121 117/114/113 124/121/120
f 117/114/113 125/122/121 126/123/122
f 117/114/113 126/123/122 119/116/115
f 126/123/122 125/122/121 127/124/123
f 125/122/121 128/125/124 127/124/123
f 128/125/124 129/126/125 127/124/123
f 127/124/123 129/126/125 130/127/126
f 126/123/122 127/124/123 130/127/126
f 130/127/126 131/128/127 126/123/122
f 126/123/122 131/128/127 132/129/128
f 126/123/122 132/129/128 119/116/115
f 131/128/127 133/130/129 132/129/128
f 134/131/130 119/116/115 132/129/128
f 135/132/131 119/116/115 134/131/130
f 132/129/128 133/130/129 136/133/132
f 134/131/130 132/129/128 136/133/132
f 133/130/129 137/134/133 136/133/132
f 138/135/134 136/133/132 137/134/133
f 136/133/132 138/135/134 139/136/135
f 139/136/135 140/137/136 136/133/132
f 140/137/136 134/131/130 136/133/132
f 134/131/130 140/137/136 141/138/137
f 142/139/138 135/132/131 134/131/130
f 141/138/137 142/139/138 134/131/130
f 142/139/138 143/140/139 135/132/131
f 142/139/138 144/141/140 143/140/139
f 145/142/141 142/139/138 141/138/137
f 144/141/140 142/139/138 145/142/141
f 145/142/141 141/138/137 146/143/142
f 145/142/141 146/143/142 147/144/143
f 148/145/144 145/142/141 147/144/143
f 144/141/140 145/142/141 148/145/144
f 148/145/144 149/146/145 144/141/140
f 150/147/146 151/148/147 152/149/148
f 152/149/148 151/148/147 153/150/149
f 154/151/150 152/149/148 153/150/149
f 151/148/147 155/152/151 153/150/149
f 154/151/150 153/150/149 156/153/152
f 153/150/149 155/152/151 156/153/152
f 156/153/152 155/152/151 157/154/153
f 157/154/153 155/152/151 158/155/154
f 154/151/150 156/153/152 159/156/155
f 158/155/154 155/152/151 160/157/156
f 156/153/152 157/154/153 161/158/157
f 161/158/157 159/156/155 156/153/152
f 160/157/156 162/159/158 158/155/154
f 160/157/156 163/160/119 162/159/158
f 162/159/158 163/160/119 164/161/159
f 165/162/118 164/161/159 163/160/119
f 166/163/160 162/159/158 164/161/159
f 166/163/160 158/155/154 162/159/158
f 167/164/161 158/155/154 166/163/160
f 158/155/154 167/164/161 157/154/153
f 167/164/161 168/165/162 157/154/153
f 157/154/153 168/165/162 169/166/163
f 168/165/162 170/167/164 169/166/163
f 170/167/164 171/168/104 169/166/163
f 169/166/163 171/168/104 172/169/102
f 173/170/103 172/169/102 171/168/104
f 172/169/102 174/171/165 169/166/163
f 175/172/166 174/171/165 172/169/102
f 174/171/165 175/172/166 176/173/167
f 169/166/163 177/174/168 157/154/153
f 177/174/168 169/166/163 174/171/165
f 176/173/167 178/175/169 174/171/165
f 174/171/165 178/175/169 177/174/168
f 179/176/93 178/175/169 176/173/167
f 178/175/169 179/176/93 180/177/142
f 180/177/142 181/178/170 178/175/169
f 177/174/168 178/175/169 181/178/170
f 181/178/170 180/177/142 182/179/171
f 183/180/172 157/154/153 177/174/168
f 181/178/170 183/180/172 177/174/168
f 161/158/157 157/154/153 183/180/172
f 184/181/173 181/178/170 182/179/171
f 181/178/170 184/181/173 183/180/172
f 183/180/172 184/181/173 161/158/157
f 185/182/174 184/181/173 182/179/171
f 161/158/157 184/181/173 186/183/175
f 185/182/174 186/183/175 184/181/173
f 159/156/155 161/158/157 186/183/175
f 186/183/175 185/182/174 187/184/176
f 188/185/177 159/156/155 186/183/175
f 187/184/176 188/185/177 186/183/175
f 188/185/177 189/186/178 159/156/155
f 187/184/176 190/187/134 188/185/177
f 188/185/177 190/187/134 189/186/178
f 191/188/179 14/11/11 17/14/14
f 14/11/11 191/188/179 12/9/9
f 191/188/179 192/189/180 12/9/9
f 193/190/181 12/9/9 192/189/180
f 10/7/7 12/9/9 193/190/181
f 193/190/181 8/5/5 10/7/7
s 0
f 6/191/182 5/191/182 198/191/182 199/191/182
s 1
f 4/3/3 3/2/2 196/2/183 197/3/184
f 92/89/89 90/87/87 207/87/185 208/89/186
f 82/79/79 92/89/89 208/89/186 206/79/187
f 191/188/179 17/14/14 201/14/188 209/188/189
f 8/5/5 193/190/181 211/190/190 200/5/191
f 20/17/17 21/16/16 205/16/192 204/17/193
f 193/190/181 192/189/180 210/189/194 211/190/190
s 0
f 2/191/195 1/191/195 194/191/195 195/191/195
s 1
f 3/2/2 1/1/1 194/1/196 196/2/183
f 192/189/180 191/188/179 209/188/189 210/189/194
f 18/15/15 19/19/19 203/19/197 202/15/198
f 19/19/19 20/17/17 204/17/193 203/19/197
f 203/19/197 204/17/193 212/19/199
f 200/5/191 211/190/190 212/5/200
f 204/17/193 205/16/192 212/17/199
s 0
f 195/191/195 194/191/195 212/191/195
s 1
f 208/89/186 207/87/185 212/89/201
f 196/2/183 194/1/196 212/2/202
f 206/79/187 208/89/186 212/79/201
f 209/188/189 201/14/188 212/188/200
f 210/189/194 209/188/189 212/189/200
f 211/190/190 210/189/194 212/190/200
f 202/15/198 203/19/197 212/15/199
f 197/3/184 196/2/183 212/3/202
s 0
f 199/191/182 198/191/182 212/191/182
