# Blender 5.2.0 LTS
# www.blender.org
mtllib SphereCubiqueblend.mtl
o CubeSpherique
v 5.000000 3.000000 3.000000
v 5.000000 1.000000 3.000000
v 5.000000 3.000000 1.000000
v 5.000000 1.000000 1.000000
v 7.000000 3.000000 3.000000
v 7.000000 1.000000 3.000000
v 7.000000 3.000000 1.000000
v 7.000000 1.000000 1.000000
v -1.000000 5.000000 -3.000000
v -1.000000 3.000000 -3.000000
v -1.000000 5.000000 -5.000000
v -1.000000 3.000000 -5.000000
v 1.000000 5.000000 -3.000000
v 1.000000 3.000000 -3.000000
v 1.000000 5.000000 -5.000000
v 1.000000 3.000000 -5.000000
v -3.000000 5.000000 -3.000000
v -3.000000 3.000000 -3.000000
v -3.000000 5.000000 -5.000000
v -3.000000 3.000000 -5.000000
v -1.000000 5.000000 -3.000000
v -1.000000 3.000000 -3.000000
v -1.000001 5.000000 -5.000000
v -1.000001 3.000000 -5.000000
v 1.000000 5.000000 -3.000000
v 1.000000 3.000000 -3.000000
v 0.999999 5.000000 -5.000000
v 0.999999 3.000000 -5.000000
v 3.000000 5.000000 -3.000000
v 3.000000 3.000000 -3.000000
v 2.999999 5.000000 -5.000000
v 2.999999 3.000000 -5.000000
v 1.000000 3.000000 -5.000000
v 1.000000 1.000000 -5.000000
v 0.999999 3.000000 -7.000000
v 0.999999 1.000000 -7.000000
v 3.000000 3.000000 -5.000001
v 3.000000 1.000000 -5.000001
v 2.999999 3.000000 -7.000001
v 2.999999 1.000000 -7.000001
v -3.000000 3.000000 -4.999999
v -3.000000 1.000000 -4.999999
v -3.000001 3.000000 -6.999999
v -3.000001 1.000000 -6.999999
v -1.000000 3.000000 -5.000000
v -1.000000 1.000000 -5.000000
v -1.000001 3.000000 -7.000000
v -1.000001 1.000000 -7.000000
v -1.000000 3.000000 -5.000000
v -1.000000 1.000000 -5.000000
v -1.000000 3.000000 -7.000000
v -1.000000 1.000000 -7.000000
v 1.000000 3.000000 -5.000000
v 1.000000 1.000000 -5.000000
v 1.000000 3.000000 -7.000000
v 1.000000 1.000000 -7.000000
v 1.000000 1.000000 -5.000000
v 1.000000 -1.000000 -5.000000
v 0.999999 1.000000 -7.000000
v 0.999999 -1.000000 -7.000000
v 3.000000 1.000000 -5.000001
v 3.000000 -1.000000 -5.000001
v 2.999999 1.000000 -7.000001
v 2.999999 -1.000000 -7.000001
v -3.000000 1.000000 -4.999999
v -3.000000 -1.000000 -4.999999
v -3.000001 1.000000 -6.999999
v -3.000001 -1.000000 -6.999999
v -1.000000 1.000000 -5.000000
v -1.000000 -1.000000 -5.000000
v -1.000001 1.000000 -7.000000
v -1.000001 -1.000000 -7.000000
v -1.000000 1.000000 -5.000000
v -1.000000 -1.000000 -5.000000
v -1.000000 1.000000 -7.000000
v -1.000000 -1.000000 -7.000000
v 1.000000 1.000000 -5.000000
v 1.000000 -1.000000 -5.000000
v 1.000000 1.000000 -7.000000
v 1.000000 -1.000000 -7.000000
v 1.000000 -1.000000 -5.000000
v 1.000000 -3.000000 -5.000000
v 0.999999 -1.000000 -7.000000
v 0.999999 -3.000000 -7.000000
v 3.000000 -1.000000 -5.000001
v 3.000000 -3.000000 -5.000001
v 2.999999 -1.000000 -7.000001
v 2.999999 -3.000000 -7.000001
v -3.000000 -1.000000 -4.999999
v -3.000000 -3.000000 -4.999999
v -3.000001 -1.000000 -6.999999
v -3.000001 -3.000000 -6.999999
v -1.000000 -1.000000 -5.000000
v -1.000000 -3.000000 -5.000000
v -1.000001 -1.000000 -7.000000
v -1.000001 -3.000000 -7.000000
v -1.000000 -1.000000 -5.000000
v -1.000000 -3.000000 -5.000000
v -1.000000 -1.000000 -7.000000
v -1.000000 -3.000000 -7.000000
v 1.000000 -1.000000 -5.000000
v 1.000000 -3.000000 -5.000000
v 1.000000 -1.000000 -7.000000
v 1.000000 -3.000000 -7.000000
v 1.000000 -3.000000 -3.000000
v 1.000000 -5.000000 -3.000000
v 0.999999 -3.000000 -5.000000
v 0.999999 -5.000000 -5.000000
v 3.000000 -3.000000 -3.000000
v 3.000000 -5.000000 -3.000000
v 2.999999 -3.000000 -5.000000
v 2.999999 -5.000000 -5.000000
v -3.000000 -3.000000 -3.000000
v -3.000000 -5.000000 -3.000000
v -3.000000 -3.000000 -5.000000
v -3.000000 -5.000000 -5.000000
v -1.000000 -3.000000 -3.000000
v -1.000000 -5.000000 -3.000000
v -1.000001 -3.000000 -5.000000
v -1.000001 -5.000000 -5.000000
v -1.000000 -3.000000 -3.000000
v -1.000000 -5.000000 -3.000000
v -1.000000 -3.000000 -5.000000
v -1.000000 -5.000000 -5.000000
v 1.000000 -3.000000 -3.000000
v 1.000000 -5.000000 -3.000000
v 1.000000 -3.000000 -5.000000
v 1.000000 -5.000000 -5.000000
v -5.000000 5.000000 -0.999999
v -5.000000 3.000000 -0.999999
v -5.000001 5.000000 -2.999999
v -5.000001 3.000000 -2.999999
v -3.000000 5.000000 -1.000000
v -3.000000 3.000000 -1.000000
v -3.000001 5.000000 -3.000000
v -3.000001 3.000000 -3.000000
v -5.000000 5.000000 1.000001
v -5.000000 3.000000 1.000001
v -5.000001 5.000000 -0.999999
v -5.000001 3.000000 -0.999999
v -3.000000 5.000000 1.000000
v -3.000000 3.000000 1.000000
v -3.000001 5.000000 -1.000000
v -3.000001 3.000000 -1.000000
v -5.000000 5.000000 3.000000
v -5.000000 3.000000 3.000000
v -5.000000 5.000000 1.000000
v -5.000000 3.000000 1.000000
v -3.000000 5.000000 3.000000
v -3.000000 3.000000 3.000000
v -3.000000 5.000000 1.000000
v -3.000000 3.000000 1.000000
v -7.000000 3.000000 3.000000
v -7.000000 1.000000 3.000000
v -7.000000 3.000000 1.000000
v -7.000000 1.000000 1.000000
v -5.000000 3.000000 3.000000
v -5.000000 1.000000 3.000000
v -5.000000 3.000000 1.000000
v -5.000000 1.000000 1.000000
v -7.000000 3.000000 1.000001
v -7.000000 1.000000 1.000001
v -7.000001 3.000000 -0.999999
v -7.000001 1.000000 -0.999999
v -5.000000 3.000000 1.000000
v -5.000000 1.000000 1.000000
v -5.000001 3.000000 -1.000000
v -5.000001 1.000000 -1.000000
v -7.000000 3.000000 -1.000000
v -7.000000 1.000000 -1.000000
v -7.000001 3.000000 -3.000000
v -7.000001 1.000000 -3.000000
v -5.000000 3.000000 -1.000000
v -5.000000 1.000000 -1.000000
v -5.000001 3.000000 -3.000000
v -5.000001 1.000000 -3.000000
v -7.000000 1.000000 -1.000000
v -7.000000 -1.000000 -1.000000
v -7.000001 1.000000 -3.000000
v -7.000001 -1.000000 -3.000000
v -5.000000 1.000000 -1.000000
v -5.000000 -1.000000 -1.000000
v -5.000001 1.000000 -3.000000
v -5.000001 -1.000000 -3.000000
v -7.000000 1.000000 1.000001
v -7.000000 -1.000000 1.000001
v -7.000001 1.000000 -0.999999
v -7.000001 -1.000000 -0.999999
v -5.000000 1.000000 1.000000
v -5.000000 -1.000000 1.000000
v -5.000001 1.000000 -1.000000
v -5.000001 -1.000000 -1.000000
v -7.000000 1.000000 3.000000
v -7.000000 -1.000000 3.000000
v -7.000000 1.000000 1.000000
v -7.000000 -1.000000 1.000000
v -5.000000 1.000000 3.000000
v -5.000000 -1.000000 3.000000
v -5.000000 1.000000 1.000000
v -5.000000 -1.000000 1.000000
v -7.000000 -1.000000 -1.000000
v -7.000000 -3.000000 -1.000000
v -7.000001 -1.000000 -3.000000
v -7.000001 -3.000000 -3.000000
v -5.000000 -1.000000 -1.000000
v -5.000000 -3.000000 -1.000000
v -5.000001 -1.000000 -3.000000
v -5.000001 -3.000000 -3.000000
v -7.000000 -1.000000 1.000001
v -7.000000 -3.000000 1.000001
v -7.000001 -1.000000 -0.999999
v -7.000001 -3.000000 -0.999999
v -5.000000 -1.000000 1.000000
v -5.000000 -3.000000 1.000000
v -5.000001 -1.000000 -1.000000
v -5.000001 -3.000000 -1.000000
v -7.000000 -1.000000 3.000000
v -7.000000 -3.000000 3.000000
v -7.000000 -1.000000 1.000000
v -7.000000 -3.000000 1.000000
v -5.000000 -1.000000 3.000000
v -5.000000 -3.000000 3.000000
v -5.000000 -1.000000 1.000000
v -5.000000 -3.000000 1.000000
v -5.000000 -3.000000 -0.999999
v -5.000000 -5.000000 -0.999999
v -5.000001 -3.000000 -2.999999
v -5.000001 -5.000000 -2.999999
v -3.000000 -3.000000 -1.000000
v -3.000000 -5.000000 -1.000000
v -3.000001 -3.000000 -3.000000
v -3.000001 -5.000000 -3.000000
v -5.000000 -3.000000 1.000001
v -5.000000 -5.000000 1.000001
v -5.000001 -3.000000 -0.999999
v -5.000001 -5.000000 -0.999999
v -3.000000 -3.000000 1.000000
v -3.000000 -5.000000 1.000000
v -3.000001 -3.000000 -1.000000
v -3.000001 -5.000000 -1.000000
v -5.000000 -3.000000 3.000000
v -5.000000 -5.000000 3.000000
v -5.000000 -3.000000 1.000000
v -5.000000 -5.000000 1.000000
v -3.000000 -3.000000 3.000000
v -3.000000 -5.000000 3.000000
v -3.000000 -3.000000 1.000000
v -3.000000 -5.000000 1.000000
v 1.000000 5.000000 5.000000
v 1.000000 3.000000 5.000000
v 1.000000 5.000000 3.000000
v 1.000000 3.000000 3.000000
v 3.000000 5.000000 4.999999
v 3.000000 3.000000 4.999999
v 2.999999 5.000000 2.999999
v 2.999999 3.000000 2.999999
v -3.000000 5.000000 5.000000
v -3.000000 3.000000 5.000000
v -3.000001 5.000000 3.000000
v -3.000001 3.000000 3.000000
v -1.000000 5.000000 4.999999
v -1.000000 3.000000 4.999999
v -1.000000 5.000000 2.999999
v -1.000000 3.000000 2.999999
v -1.000000 5.000000 5.000000
v -1.000000 3.000000 5.000000
v -1.000000 5.000000 3.000000
v -1.000000 3.000000 3.000000
v 1.000000 5.000000 4.999999
v 1.000000 3.000000 4.999999
v 1.000000 5.000000 2.999999
v 1.000000 3.000000 2.999999
v -1.000000 3.000000 7.000000
v -1.000000 1.000000 7.000000
v -1.000000 3.000000 5.000000
v -1.000000 1.000000 5.000000
v 1.000000 3.000000 7.000000
v 1.000000 1.000000 7.000000
v 1.000000 3.000000 5.000000
v 1.000000 1.000000 5.000000
v -3.000000 3.000000 7.000000
v -3.000000 1.000000 7.000000
v -3.000001 3.000000 5.000000
v -3.000001 1.000000 5.000000
v -1.000000 3.000000 7.000000
v -1.000000 1.000000 7.000000
v -1.000001 3.000000 5.000000
v -1.000001 1.000000 5.000000
v 1.000000 3.000000 7.000000
v 1.000000 1.000000 7.000000
v 0.999999 3.000000 5.000000
v 0.999999 1.000000 5.000000
v 3.000000 3.000000 7.000000
v 3.000000 1.000000 7.000000
v 2.999999 3.000000 5.000000
v 2.999999 1.000000 5.000000
v 1.000000 1.000000 7.000000
v 1.000000 -1.000000 7.000000
v 0.999999 1.000000 5.000000
v 0.999999 -1.000000 5.000000
v 3.000000 1.000000 7.000000
v 3.000000 -1.000000 7.000000
v 2.999999 1.000000 5.000000
v 2.999999 -1.000000 5.000000
v -3.000000 1.000000 7.000000
v -3.000000 -1.000000 7.000000
v -3.000001 1.000000 5.000000
v -3.000001 -1.000000 5.000000
v -1.000000 1.000000 7.000000
v -1.000000 -1.000000 7.000000
v -1.000001 1.000000 5.000000
v -1.000001 -1.000000 5.000000
v -1.000000 1.000000 7.000000
v -1.000000 -1.000000 7.000000
v -1.000000 1.000000 5.000000
v -1.000000 -1.000000 5.000000
v 1.000000 1.000000 7.000000
v 1.000000 -1.000000 7.000000
v 1.000000 1.000000 5.000000
v 1.000000 -1.000000 5.000000
v 1.000000 -1.000000 7.000000
v 1.000000 -3.000000 7.000000
v 0.999999 -1.000000 5.000000
v 0.999999 -3.000000 5.000000
v 3.000000 -1.000000 7.000000
v 3.000000 -3.000000 7.000000
v 2.999999 -1.000000 5.000000
v 2.999999 -3.000000 5.000000
v -3.000000 -1.000000 7.000000
v -3.000000 -3.000000 7.000000
v -3.000001 -1.000000 5.000000
v -3.000001 -3.000000 5.000000
v -1.000000 -1.000000 7.000000
v -1.000000 -3.000000 7.000000
v -1.000001 -1.000000 5.000000
v -1.000001 -3.000000 5.000000
v -1.000000 -1.000000 7.000000
v -1.000000 -3.000000 7.000000
v -1.000000 -1.000000 5.000000
v -1.000000 -3.000000 5.000000
v 1.000000 -1.000000 7.000000
v 1.000000 -3.000000 7.000000
v 1.000000 -1.000000 5.000000
v 1.000000 -3.000000 5.000000
v 1.000000 -3.000000 5.000000
v 1.000000 -5.000000 5.000000
v 1.000000 -3.000000 3.000000
v 1.000000 -5.000000 3.000000
v 3.000000 -3.000000 5.000000
v 3.000000 -5.000000 5.000000
v 2.999999 -3.000000 3.000000
v 2.999999 -5.000000 3.000000
v -3.000000 -3.000000 5.000000
v -3.000000 -5.000000 5.000000
v -3.000001 -3.000000 3.000000
v -3.000001 -5.000000 3.000000
v -1.000000 -3.000000 5.000000
v -1.000000 -5.000000 5.000000
v -1.000000 -3.000000 3.000000
v -1.000000 -5.000000 3.000000
v -1.000000 -3.000000 5.000000
v -1.000000 -5.000000 5.000000
v -1.000000 -3.000000 3.000000
v -1.000000 -5.000000 3.000000
v 1.000000 -3.000000 5.000000
v 1.000000 -5.000000 5.000000
v 1.000000 -3.000000 3.000000
v 1.000000 -5.000000 3.000000
v 3.000000 5.000000 3.000000
v 3.000000 3.000000 3.000000
v 3.000000 5.000000 1.000000
v 3.000000 3.000000 1.000000
v 5.000000 5.000000 3.000000
v 5.000000 3.000000 3.000000
v 5.000000 5.000000 1.000000
v 5.000000 3.000000 1.000000
v 3.000000 5.000000 1.000000
v 3.000000 3.000000 1.000000
v 3.000000 5.000000 -1.000000
v 3.000000 3.000000 -1.000000
v 5.000000 5.000000 1.000000
v 5.000000 3.000000 1.000000
v 5.000000 5.000000 -1.000000
v 5.000000 3.000000 -1.000000
v 3.000000 5.000000 -1.000000
v 3.000000 3.000000 -1.000000
v 2.999999 5.000000 -3.000000
v 2.999999 3.000000 -3.000000
v 5.000000 5.000000 -1.000000
v 5.000000 3.000000 -1.000000
v 4.999999 5.000000 -3.000000
v 4.999999 3.000000 -3.000000
v 5.000000 3.000000 -1.000000
v 5.000000 1.000000 -1.000000
v 4.999999 3.000000 -3.000000
v 4.999999 1.000000 -3.000000
v 7.000000 3.000000 -1.000000
v 7.000000 1.000000 -1.000000
v 7.000000 3.000000 -3.000000
v 7.000000 1.000000 -3.000000
v 5.000000 3.000000 1.000000
v 5.000000 1.000000 1.000000
v 5.000000 3.000000 -1.000000
v 5.000000 1.000000 -1.000000
v 7.000000 3.000000 1.000000
v 7.000000 1.000000 1.000000
v 7.000000 3.000000 -1.000000
v 7.000000 1.000000 -1.000000
v 5.000000 1.000000 3.000000
v 5.000000 -1.000000 3.000000
v 5.000000 1.000000 1.000000
v 5.000000 -1.000000 1.000000
v 7.000000 1.000000 3.000000
v 7.000000 -1.000000 3.000000
v 7.000000 1.000000 1.000000
v 7.000000 -1.000000 1.000000
v 5.000000 1.000000 1.000000
v 5.000000 -1.000000 1.000000
v 5.000000 1.000000 -1.000000
v 5.000000 -1.000000 -1.000000
v 7.000000 1.000000 1.000000
v 7.000000 -1.000000 1.000000
v 7.000000 1.000000 -1.000000
v 7.000000 -1.000000 -1.000000
v 5.000000 1.000000 -1.000000
v 5.000000 -1.000000 -1.000000
v 4.999999 1.000000 -3.000000
v 4.999999 -1.000000 -3.000000
v 7.000000 1.000000 -1.000000
v 7.000000 -1.000000 -1.000000
v 7.000000 1.000000 -3.000000
v 7.000000 -1.000000 -3.000000
v 5.000000 -1.000000 3.000000
v 5.000000 -3.000000 3.000000
v 5.000000 -1.000000 1.000000
v 5.000000 -3.000000 1.000000
v 7.000000 -1.000000 3.000000
v 7.000000 -3.000000 3.000000
v 7.000000 -1.000000 1.000000
v 7.000000 -3.000000 1.000000
v 5.000000 -1.000000 1.000000
v 5.000000 -3.000000 1.000000
v 5.000000 -1.000000 -1.000000
v 5.000000 -3.000000 -1.000000
v 7.000000 -1.000000 1.000000
v 7.000000 -3.000000 1.000000
v 7.000000 -1.000000 -1.000000
v 7.000000 -3.000000 -1.000000
v 5.000000 -1.000000 -1.000000
v 5.000000 -3.000000 -1.000000
v 4.999999 -1.000000 -3.000000
v 4.999999 -3.000000 -3.000000
v 7.000000 -1.000000 -1.000000
v 7.000000 -3.000000 -1.000000
v 7.000000 -1.000000 -3.000000
v 7.000000 -3.000000 -3.000000
v 3.000000 -3.000000 3.000000
v 3.000000 -5.000000 3.000000
v 2.999999 -3.000000 1.000000
v 2.999999 -5.000000 1.000000
v 5.000000 -3.000000 3.000000
v 5.000000 -5.000000 3.000000
v 4.999999 -3.000000 1.000000
v 4.999999 -5.000000 1.000000
v 3.000000 -3.000000 1.000000
v 3.000000 -5.000000 1.000000
v 2.999999 -3.000000 -1.000000
v 2.999999 -5.000000 -1.000000
v 5.000000 -3.000000 1.000000
v 5.000000 -5.000000 1.000000
v 4.999999 -3.000000 -1.000000
v 4.999999 -5.000000 -1.000000
v 3.000000 -3.000000 -1.000000
v 3.000000 -5.000000 -1.000000
v 2.999999 -3.000000 -3.000000
v 2.999999 -5.000000 -3.000000
v 5.000000 -3.000000 -1.000000
v 5.000000 -5.000000 -1.000000
v 4.999999 -3.000000 -3.000000
v 4.999999 -5.000000 -3.000000
v 3.000000 -1.000000 5.000000
v 3.000000 -3.000000 5.000000
v 3.000000 -1.000000 3.000000
v 3.000000 -3.000000 3.000000
v 5.000000 -1.000000 5.000000
v 5.000000 -3.000000 5.000000
v 5.000000 -1.000000 3.000000
v 5.000000 -3.000000 3.000000
v 3.000000 1.000000 5.000000
v 3.000000 -1.000000 5.000000
v 3.000000 1.000000 3.000000
v 3.000000 -1.000000 3.000000
v 5.000000 1.000000 5.000000
v 5.000000 -1.000000 5.000000
v 5.000000 1.000000 3.000000
v 5.000000 -1.000000 3.000000
v 3.000000 3.000000 5.000000
v 3.000000 1.000000 5.000000
v 3.000000 3.000000 3.000000
v 3.000000 1.000000 3.000000
v 5.000000 3.000000 5.000000
v 5.000000 1.000000 5.000000
v 5.000000 3.000000 3.000000
v 5.000000 1.000000 3.000000
v 3.000000 3.000000 -3.000000
v 3.000000 1.000000 -3.000000
v 3.000000 3.000000 -5.000000
v 3.000000 1.000000 -5.000000
v 5.000000 3.000000 -3.000000
v 5.000000 1.000000 -3.000000
v 5.000000 3.000000 -5.000000
v 5.000000 1.000000 -5.000000
v 3.000000 1.000000 -3.000000
v 3.000000 -1.000000 -3.000000
v 3.000000 1.000000 -5.000000
v 3.000000 -1.000000 -5.000000
v 5.000000 1.000000 -3.000000
v 5.000000 -1.000000 -3.000000
v 5.000000 1.000000 -5.000000
v 5.000000 -1.000000 -5.000000
v 3.000000 -1.000000 -3.000000
v 3.000000 -3.000000 -3.000000
v 3.000000 -1.000000 -5.000000
v 3.000000 -3.000000 -5.000000
v 5.000000 -1.000000 -3.000000
v 5.000000 -3.000000 -3.000000
v 5.000000 -1.000000 -5.000000
v 5.000000 -3.000000 -5.000000
v -5.000001 3.000000 5.000000
v -5.000001 1.000000 5.000000
v -5.000002 3.000000 3.000000
v -5.000002 1.000000 3.000000
v -3.000001 3.000000 5.000000
v -3.000001 1.000000 5.000000
v -3.000002 3.000000 3.000000
v -3.000002 1.000000 3.000000
v -5.000001 1.000000 5.000000
v -5.000001 -1.000000 5.000000
v -5.000002 1.000000 3.000000
v -5.000002 -1.000000 3.000000
v -3.000001 1.000000 5.000000
v -3.000001 -1.000000 5.000000
v -3.000002 1.000000 3.000000
v -3.000002 -1.000000 3.000000
v -5.000001 -1.000000 5.000000
v -5.000001 -3.000000 5.000000
v -5.000002 -1.000000 3.000000
v -5.000002 -3.000000 3.000000
v -3.000001 -1.000000 5.000000
v -3.000001 -3.000000 5.000000
v -3.000002 -1.000000 3.000000
v -3.000002 -3.000000 3.000000
v -5.000000 3.000000 -3.000000
v -5.000000 1.000000 -3.000000
v -5.000000 3.000000 -5.000000
v -5.000000 1.000000 -5.000000
v -3.000000 3.000000 -3.000000
v -3.000000 1.000000 -3.000000
v -3.000000 3.000000 -5.000000
v -3.000000 1.000000 -5.000000
v -5.000000 1.000000 -3.000000
v -5.000000 -1.000000 -3.000000
v -5.000000 1.000000 -5.000000
v -5.000000 -1.000000 -5.000000
v -3.000000 1.000000 -3.000000
v -3.000000 -1.000000 -3.000000
v -3.000000 1.000000 -5.000000
v -3.000000 -1.000000 -5.000000
v -5.000000 -1.000000 -3.000000
v -5.000000 -3.000000 -3.000000
v -5.000000 -1.000000 -5.000000
v -5.000000 -3.000000 -5.000000
v -3.000000 -1.000000 -3.000000
v -3.000000 -3.000000 -3.000000
v -3.000000 -1.000000 -5.000000
v -3.000000 -3.000000 -5.000000
v -1.000000 -5.000000 3.000000
v -1.000000 -7.000000 3.000000
v -1.000000 -5.000000 1.000000
v -1.000000 -7.000000 1.000000
v 1.000000 -5.000000 3.000000
v 1.000000 -7.000000 3.000000
v 1.000000 -5.000000 1.000000
v 1.000000 -7.000000 1.000000
v -3.000000 -5.000000 3.000000
v -3.000000 -7.000000 3.000000
v -3.000000 -5.000000 1.000000
v -3.000000 -7.000000 1.000000
v -1.000000 -5.000000 3.000000
v -1.000000 -7.000000 3.000000
v -1.000000 -5.000000 1.000000
v -1.000000 -7.000000 1.000000
v 1.000000 -5.000000 3.000000
v 1.000000 -7.000000 3.000000
v 0.999999 -5.000000 1.000000
v 0.999999 -7.000000 1.000000
v 3.000000 -5.000000 3.000000
v 3.000000 -7.000000 3.000000
v 2.999999 -5.000000 1.000000
v 2.999999 -7.000000 1.000000
v 1.000000 -5.000000 1.000000
v 1.000000 -7.000000 1.000000
v 0.999999 -5.000000 -1.000000
v 0.999999 -7.000000 -1.000000
v 3.000000 -5.000000 1.000000
v 3.000000 -7.000000 1.000000
v 2.999999 -5.000000 -1.000000
v 2.999999 -7.000000 -1.000000
v -3.000000 -5.000000 1.000000
v -3.000000 -7.000000 1.000000
v -3.000001 -5.000000 -1.000000
v -3.000001 -7.000000 -1.000000
v -1.000000 -5.000000 1.000000
v -1.000000 -7.000000 1.000000
v -1.000001 -5.000000 -1.000000
v -1.000001 -7.000000 -1.000000
v -1.000000 -5.000000 1.000000
v -1.000000 -7.000000 1.000000
v -1.000000 -5.000000 -1.000000
v -1.000000 -7.000000 -1.000000
v 1.000000 -5.000000 1.000000
v 1.000000 -7.000000 1.000000
v 1.000000 -5.000000 -1.000000
v 1.000000 -7.000000 -1.000000
v 1.000000 -5.000000 -1.000000
v 1.000000 -7.000000 -1.000000
v 1.000000 -5.000000 -3.000000
v 1.000000 -7.000000 -3.000000
v 3.000000 -5.000000 -1.000000
v 3.000000 -7.000000 -1.000000
v 2.999999 -5.000000 -3.000000
v 2.999999 -7.000000 -3.000000
v -3.000000 -5.000000 -1.000000
v -3.000000 -7.000000 -1.000000
v -3.000001 -5.000000 -3.000000
v -3.000001 -7.000000 -3.000000
v -1.000000 -5.000000 -1.000000
v -1.000000 -7.000000 -1.000000
v -1.000000 -5.000000 -3.000000
v -1.000000 -7.000000 -3.000000
v -1.000000 -5.000000 -1.000000
v -1.000000 -7.000000 -1.000000
v -1.000000 -5.000000 -3.000000
v -1.000000 -7.000000 -3.000000
v 1.000000 -5.000000 -1.000000
v 1.000000 -7.000000 -1.000000
v 1.000000 -5.000000 -3.000000
v 1.000000 -7.000000 -3.000000
v -1.000000 7.000000 -1.000000
v -1.000000 5.000000 -1.000000
v -1.000000 7.000000 -3.000000
v -1.000000 5.000000 -3.000000
v 1.000000 7.000000 -1.000000
v 1.000000 5.000000 -1.000000
v 1.000000 7.000000 -3.000000
v 1.000000 5.000000 -3.000000
v -3.000000 7.000000 -1.000000
v -3.000000 5.000000 -1.000000
v -3.000001 7.000000 -3.000000
v -3.000001 5.000000 -3.000000
v -1.000000 7.000000 -1.000000
v -1.000000 5.000000 -1.000000
v -1.000000 7.000000 -3.000000
v -1.000000 5.000000 -3.000000
v 1.000000 7.000000 -1.000000
v 1.000000 5.000000 -1.000000
v 1.000000 7.000000 -3.000000
v 1.000000 5.000000 -3.000000
v 3.000000 7.000000 -1.000000
v 3.000000 5.000000 -1.000000
v 2.999999 7.000000 -3.000000
v 2.999999 5.000000 -3.000000
v -1.000000 7.000000 1.000000
v -1.000000 5.000000 1.000000
v -1.000000 7.000000 -1.000000
v -1.000000 5.000000 -1.000000
v 1.000000 7.000000 1.000000
v 1.000000 5.000000 1.000000
v 1.000000 7.000000 -1.000000
v 1.000000 5.000000 -1.000000
v -3.000000 7.000000 1.000000
v -3.000000 5.000000 1.000000
v -3.000001 7.000000 -1.000000
v -3.000001 5.000000 -1.000000
v -1.000000 7.000000 1.000000
v -1.000000 5.000000 1.000000
v -1.000001 7.000000 -1.000000
v -1.000001 5.000000 -1.000000
v 1.000000 7.000000 1.000000
v 1.000000 5.000000 1.000000
v 0.999999 7.000000 -1.000000
v 0.999999 5.000000 -1.000000
v 3.000000 7.000000 1.000000
v 3.000000 5.000000 1.000000
v 2.999999 7.000000 -1.000000
v 2.999999 5.000000 -1.000000
v 1.000000 7.000000 3.000000
v 1.000000 5.000000 3.000000
v 0.999999 7.000000 1.000000
v 0.999999 5.000000 1.000000
v 3.000000 7.000000 3.000000
v 3.000000 5.000000 3.000000
v 2.999999 7.000000 1.000000
v 2.999999 5.000000 1.000000
v -3.000000 7.000000 3.000000
v -3.000000 5.000000 3.000000
v -3.000000 7.000000 1.000000
v -3.000000 5.000000 1.000000
v -1.000000 7.000000 3.000000
v -1.000000 5.000000 3.000000
v -1.000000 7.000000 1.000000
v -1.000000 5.000000 1.000000
v -1.000000 7.000000 3.000000
v -1.000000 5.000000 3.000000
v -1.000000 7.000000 1.000000
v -1.000000 5.000000 1.000000
v 1.000000 7.000000 3.000000
v 1.000000 5.000000 3.000000
v 1.000000 7.000000 1.000000
v 1.000000 5.000000 1.000000
vn -0.0000 1.0000 -0.0000
vn -0.0000 -0.0000 -1.0000
vn 1.0000 -0.0000 -0.0000
vn -0.0000 -1.0000 -0.0000
vn -1.0000 -0.0000 -0.0000
vn -0.0000 -0.0000 1.0000
vt 2.000000 1.000000
vt 2.000000 2.000000
vt 1.000000 2.000000
vt 1.000000 1.000000
vt 1.000000 0.000000
vt 0.000000 1.000000
vt 0.000000 0.000000
vt 4.000000 0.000000
vt 4.000000 1.000000
vt 3.000000 1.000000
vt 3.000000 0.000000
vt 2.000000 -1.000000
vt 2.000000 0.000000
vt 1.000000 -1.000000
s 0
usemtl ModelTexture
f 1/1/1 5/2/1 7/3/1 3/4/1
f 4/5/2 3/4/2 7/6/2 8/7/2
f 8/8/3 7/9/3 5/10/3 6/11/3
f 6/12/4 2/13/4 4/5/4 8/14/4
f 2/13/5 1/1/5 3/4/5 4/5/5
f 6/11/6 5/10/6 1/1/6 2/13/6
f 9/1/1 13/2/1 15/3/1 11/4/1
f 12/5/2 11/4/2 15/6/2 16/7/2
f 16/8/3 15/9/3 13/10/3 14/11/3
f 14/12/4 10/13/4 12/5/4 16/14/4
f 10/13/5 9/1/5 11/4/5 12/5/5
f 14/11/6 13/10/6 9/1/6 10/13/6
f 17/1/1 21/2/1 23/3/1 19/4/1
f 20/5/2 19/4/2 23/6/2 24/7/2
f 24/8/3 23/9/3 21/10/3 22/11/3
f 22/12/4 18/13/4 20/5/4 24/14/4
f 18/13/5 17/1/5 19/4/5 20/5/5
f 22/11/6 21/10/6 17/1/6 18/13/6
f 25/1/1 29/2/1 31/3/1 27/4/1
f 28/5/2 27/4/2 31/6/2 32/7/2
f 32/8/3 31/9/3 29/10/3 30/11/3
f 30/12/4 26/13/4 28/5/4 32/14/4
f 26/13/5 25/1/5 27/4/5 28/5/5
f 30/11/6 29/10/6 25/1/6 26/13/6
f 33/1/1 37/2/1 39/3/1 35/4/1
f 36/5/2 35/4/2 39/6/2 40/7/2
f 40/8/3 39/9/3 37/10/3 38/11/3
f 38/12/4 34/13/4 36/5/4 40/14/4
f 34/13/5 33/1/5 35/4/5 36/5/5
f 38/11/6 37/10/6 33/1/6 34/13/6
f 41/1/1 45/2/1 47/3/1 43/4/1
f 44/5/2 43/4/2 47/6/2 48/7/2
f 48/8/3 47/9/3 45/10/3 46/11/3
f 46/12/4 42/13/4 44/5/4 48/14/4
f 42/13/5 41/1/5 43/4/5 44/5/5
f 46/11/6 45/10/6 41/1/6 42/13/6
f 49/1/1 53/2/1 55/3/1 51/4/1
f 52/5/2 51/4/2 55/6/2 56/7/2
f 56/8/3 55/9/3 53/10/3 54/11/3
f 54/12/4 50/13/4 52/5/4 56/14/4
f 50/13/5 49/1/5 51/4/5 52/5/5
f 54/11/6 53/10/6 49/1/6 50/13/6
f 57/1/1 61/2/1 63/3/1 59/4/1
f 60/5/2 59/4/2 63/6/2 64/7/2
f 64/8/3 63/9/3 61/10/3 62/11/3
f 62/12/4 58/13/4 60/5/4 64/14/4
f 58/13/5 57/1/5 59/4/5 60/5/5
f 62/11/6 61/10/6 57/1/6 58/13/6
f 65/1/1 69/2/1 71/3/1 67/4/1
f 68/5/2 67/4/2 71/6/2 72/7/2
f 72/8/3 71/9/3 69/10/3 70/11/3
f 70/12/4 66/13/4 68/5/4 72/14/4
f 66/13/5 65/1/5 67/4/5 68/5/5
f 70/11/6 69/10/6 65/1/6 66/13/6
f 73/1/1 77/2/1 79/3/1 75/4/1
f 76/5/2 75/4/2 79/6/2 80/7/2
f 80/8/3 79/9/3 77/10/3 78/11/3
f 78/12/4 74/13/4 76/5/4 80/14/4
f 74/13/5 73/1/5 75/4/5 76/5/5
f 78/11/6 77/10/6 73/1/6 74/13/6
f 81/1/1 85/2/1 87/3/1 83/4/1
f 84/5/2 83/4/2 87/6/2 88/7/2
f 88/8/3 87/9/3 85/10/3 86/11/3
f 86/12/4 82/13/4 84/5/4 88/14/4
f 82/13/5 81/1/5 83/4/5 84/5/5
f 86/11/6 85/10/6 81/1/6 82/13/6
f 89/1/1 93/2/1 95/3/1 91/4/1
f 92/5/2 91/4/2 95/6/2 96/7/2
f 96/8/3 95/9/3 93/10/3 94/11/3
f 94/12/4 90/13/4 92/5/4 96/14/4
f 90/13/5 89/1/5 91/4/5 92/5/5
f 94/11/6 93/10/6 89/1/6 90/13/6
f 97/1/1 101/2/1 103/3/1 99/4/1
f 100/5/2 99/4/2 103/6/2 104/7/2
f 104/8/3 103/9/3 101/10/3 102/11/3
f 102/12/4 98/13/4 100/5/4 104/14/4
f 98/13/5 97/1/5 99/4/5 100/5/5
f 102/11/6 101/10/6 97/1/6 98/13/6
f 105/1/1 109/2/1 111/3/1 107/4/1
f 108/5/2 107/4/2 111/6/2 112/7/2
f 112/8/3 111/9/3 109/10/3 110/11/3
f 110/12/4 106/13/4 108/5/4 112/14/4
f 106/13/5 105/1/5 107/4/5 108/5/5
f 110/11/6 109/10/6 105/1/6 106/13/6
f 113/1/1 117/2/1 119/3/1 115/4/1
f 116/5/2 115/4/2 119/6/2 120/7/2
f 120/8/3 119/9/3 117/10/3 118/11/3
f 118/12/4 114/13/4 116/5/4 120/14/4
f 114/13/5 113/1/5 115/4/5 116/5/5
f 118/11/6 117/10/6 113/1/6 114/13/6
f 121/1/1 125/2/1 127/3/1 123/4/1
f 124/5/2 123/4/2 127/6/2 128/7/2
f 128/8/3 127/9/3 125/10/3 126/11/3
f 126/12/4 122/13/4 124/5/4 128/14/4
f 122/13/5 121/1/5 123/4/5 124/5/5
f 126/11/6 125/10/6 121/1/6 122/13/6
f 129/1/1 133/2/1 135/3/1 131/4/1
f 132/5/2 131/4/2 135/6/2 136/7/2
f 136/8/3 135/9/3 133/10/3 134/11/3
f 134/12/4 130/13/4 132/5/4 136/14/4
f 130/13/5 129/1/5 131/4/5 132/5/5
f 134/11/6 133/10/6 129/1/6 130/13/6
f 137/1/1 141/2/1 143/3/1 139/4/1
f 140/5/2 139/4/2 143/6/2 144/7/2
f 144/8/3 143/9/3 141/10/3 142/11/3
f 142/12/4 138/13/4 140/5/4 144/14/4
f 138/13/5 137/1/5 139/4/5 140/5/5
f 142/11/6 141/10/6 137/1/6 138/13/6
f 145/1/1 149/2/1 151/3/1 147/4/1
f 148/5/2 147/4/2 151/6/2 152/7/2
f 152/8/3 151/9/3 149/10/3 150/11/3
f 150/12/4 146/13/4 148/5/4 152/14/4
f 146/13/5 145/1/5 147/4/5 148/5/5
f 150/11/6 149/10/6 145/1/6 146/13/6
f 153/1/1 157/2/1 159/3/1 155/4/1
f 156/5/2 155/4/2 159/6/2 160/7/2
f 160/8/3 159/9/3 157/10/3 158/11/3
f 158/12/4 154/13/4 156/5/4 160/14/4
f 154/13/5 153/1/5 155/4/5 156/5/5
f 158/11/6 157/10/6 153/1/6 154/13/6
f 161/1/1 165/2/1 167/3/1 163/4/1
f 164/5/2 163/4/2 167/6/2 168/7/2
f 168/8/3 167/9/3 165/10/3 166/11/3
f 166/12/4 162/13/4 164/5/4 168/14/4
f 162/13/5 161/1/5 163/4/5 164/5/5
f 166/11/6 165/10/6 161/1/6 162/13/6
f 169/1/1 173/2/1 175/3/1 171/4/1
f 172/5/2 171/4/2 175/6/2 176/7/2
f 176/8/3 175/9/3 173/10/3 174/11/3
f 174/12/4 170/13/4 172/5/4 176/14/4
f 170/13/5 169/1/5 171/4/5 172/5/5
f 174/11/6 173/10/6 169/1/6 170/13/6
f 177/1/1 181/2/1 183/3/1 179/4/1
f 180/5/2 179/4/2 183/6/2 184/7/2
f 184/8/3 183/9/3 181/10/3 182/11/3
f 182/12/4 178/13/4 180/5/4 184/14/4
f 178/13/5 177/1/5 179/4/5 180/5/5
f 182/11/6 181/10/6 177/1/6 178/13/6
f 185/1/1 189/2/1 191/3/1 187/4/1
f 188/5/2 187/4/2 191/6/2 192/7/2
f 192/8/3 191/9/3 189/10/3 190/11/3
f 190/12/4 186/13/4 188/5/4 192/14/4
f 186/13/5 185/1/5 187/4/5 188/5/5
f 190/11/6 189/10/6 185/1/6 186/13/6
f 193/1/1 197/2/1 199/3/1 195/4/1
f 196/5/2 195/4/2 199/6/2 200/7/2
f 200/8/3 199/9/3 197/10/3 198/11/3
f 198/12/4 194/13/4 196/5/4 200/14/4
f 194/13/5 193/1/5 195/4/5 196/5/5
f 198/11/6 197/10/6 193/1/6 194/13/6
f 201/1/1 205/2/1 207/3/1 203/4/1
f 204/5/2 203/4/2 207/6/2 208/7/2
f 208/8/3 207/9/3 205/10/3 206/11/3
f 206/12/4 202/13/4 204/5/4 208/14/4
f 202/13/5 201/1/5 203/4/5 204/5/5
f 206/11/6 205/10/6 201/1/6 202/13/6
f 209/1/1 213/2/1 215/3/1 211/4/1
f 212/5/2 211/4/2 215/6/2 216/7/2
f 216/8/3 215/9/3 213/10/3 214/11/3
f 214/12/4 210/13/4 212/5/4 216/14/4
f 210/13/5 209/1/5 211/4/5 212/5/5
f 214/11/6 213/10/6 209/1/6 210/13/6
f 217/1/1 221/2/1 223/3/1 219/4/1
f 220/5/2 219/4/2 223/6/2 224/7/2
f 224/8/3 223/9/3 221/10/3 222/11/3
f 222/12/4 218/13/4 220/5/4 224/14/4
f 218/13/5 217/1/5 219/4/5 220/5/5
f 222/11/6 221/10/6 217/1/6 218/13/6
f 225/1/1 229/2/1 231/3/1 227/4/1
f 228/5/2 227/4/2 231/6/2 232/7/2
f 232/8/3 231/9/3 229/10/3 230/11/3
f 230/12/4 226/13/4 228/5/4 232/14/4
f 226/13/5 225/1/5 227/4/5 228/5/5
f 230/11/6 229/10/6 225/1/6 226/13/6
f 233/1/1 237/2/1 239/3/1 235/4/1
f 236/5/2 235/4/2 239/6/2 240/7/2
f 240/8/3 239/9/3 237/10/3 238/11/3
f 238/12/4 234/13/4 236/5/4 240/14/4
f 234/13/5 233/1/5 235/4/5 236/5/5
f 238/11/6 237/10/6 233/1/6 234/13/6
f 241/1/1 245/2/1 247/3/1 243/4/1
f 244/5/2 243/4/2 247/6/2 248/7/2
f 248/8/3 247/9/3 245/10/3 246/11/3
f 246/12/4 242/13/4 244/5/4 248/14/4
f 242/13/5 241/1/5 243/4/5 244/5/5
f 246/11/6 245/10/6 241/1/6 242/13/6
f 249/1/1 253/2/1 255/3/1 251/4/1
f 252/5/2 251/4/2 255/6/2 256/7/2
f 256/8/3 255/9/3 253/10/3 254/11/3
f 254/12/4 250/13/4 252/5/4 256/14/4
f 250/13/5 249/1/5 251/4/5 252/5/5
f 254/11/6 253/10/6 249/1/6 250/13/6
f 257/1/1 261/2/1 263/3/1 259/4/1
f 260/5/2 259/4/2 263/6/2 264/7/2
f 264/8/3 263/9/3 261/10/3 262/11/3
f 262/12/4 258/13/4 260/5/4 264/14/4
f 258/13/5 257/1/5 259/4/5 260/5/5
f 262/11/6 261/10/6 257/1/6 258/13/6
f 265/1/1 269/2/1 271/3/1 267/4/1
f 268/5/2 267/4/2 271/6/2 272/7/2
f 272/8/3 271/9/3 269/10/3 270/11/3
f 270/12/4 266/13/4 268/5/4 272/14/4
f 266/13/5 265/1/5 267/4/5 268/5/5
f 270/11/6 269/10/6 265/1/6 266/13/6
f 273/1/1 277/2/1 279/3/1 275/4/1
f 276/5/2 275/4/2 279/6/2 280/7/2
f 280/8/3 279/9/3 277/10/3 278/11/3
f 278/12/4 274/13/4 276/5/4 280/14/4
f 274/13/5 273/1/5 275/4/5 276/5/5
f 278/11/6 277/10/6 273/1/6 274/13/6
f 281/1/1 285/2/1 287/3/1 283/4/1
f 284/5/2 283/4/2 287/6/2 288/7/2
f 288/8/3 287/9/3 285/10/3 286/11/3
f 286/12/4 282/13/4 284/5/4 288/14/4
f 282/13/5 281/1/5 283/4/5 284/5/5
f 286/11/6 285/10/6 281/1/6 282/13/6
f 289/1/1 293/2/1 295/3/1 291/4/1
f 292/5/2 291/4/2 295/6/2 296/7/2
f 296/8/3 295/9/3 293/10/3 294/11/3
f 294/12/4 290/13/4 292/5/4 296/14/4
f 290/13/5 289/1/5 291/4/5 292/5/5
f 294/11/6 293/10/6 289/1/6 290/13/6
f 297/1/1 301/2/1 303/3/1 299/4/1
f 300/5/2 299/4/2 303/6/2 304/7/2
f 304/8/3 303/9/3 301/10/3 302/11/3
f 302/12/4 298/13/4 300/5/4 304/14/4
f 298/13/5 297/1/5 299/4/5 300/5/5
f 302/11/6 301/10/6 297/1/6 298/13/6
f 305/1/1 309/2/1 311/3/1 307/4/1
f 308/5/2 307/4/2 311/6/2 312/7/2
f 312/8/3 311/9/3 309/10/3 310/11/3
f 310/12/4 306/13/4 308/5/4 312/14/4
f 306/13/5 305/1/5 307/4/5 308/5/5
f 310/11/6 309/10/6 305/1/6 306/13/6
f 313/1/1 317/2/1 319/3/1 315/4/1
f 316/5/2 315/4/2 319/6/2 320/7/2
f 320/8/3 319/9/3 317/10/3 318/11/3
f 318/12/4 314/13/4 316/5/4 320/14/4
f 314/13/5 313/1/5 315/4/5 316/5/5
f 318/11/6 317/10/6 313/1/6 314/13/6
f 321/1/1 325/2/1 327/3/1 323/4/1
f 324/5/2 323/4/2 327/6/2 328/7/2
f 328/8/3 327/9/3 325/10/3 326/11/3
f 326/12/4 322/13/4 324/5/4 328/14/4
f 322/13/5 321/1/5 323/4/5 324/5/5
f 326/11/6 325/10/6 321/1/6 322/13/6
f 329/1/1 333/2/1 335/3/1 331/4/1
f 332/5/2 331/4/2 335/6/2 336/7/2
f 336/8/3 335/9/3 333/10/3 334/11/3
f 334/12/4 330/13/4 332/5/4 336/14/4
f 330/13/5 329/1/5 331/4/5 332/5/5
f 334/11/6 333/10/6 329/1/6 330/13/6
f 337/1/1 341/2/1 343/3/1 339/4/1
f 340/5/2 339/4/2 343/6/2 344/7/2
f 344/8/3 343/9/3 341/10/3 342/11/3
f 342/12/4 338/13/4 340/5/4 344/14/4
f 338/13/5 337/1/5 339/4/5 340/5/5
f 342/11/6 341/10/6 337/1/6 338/13/6
f 345/1/1 349/2/1 351/3/1 347/4/1
f 348/5/2 347/4/2 351/6/2 352/7/2
f 352/8/3 351/9/3 349/10/3 350/11/3
f 350/12/4 346/13/4 348/5/4 352/14/4
f 346/13/5 345/1/5 347/4/5 348/5/5
f 350/11/6 349/10/6 345/1/6 346/13/6
f 353/1/1 357/2/1 359/3/1 355/4/1
f 356/5/2 355/4/2 359/6/2 360/7/2
f 360/8/3 359/9/3 357/10/3 358/11/3
f 358/12/4 354/13/4 356/5/4 360/14/4
f 354/13/5 353/1/5 355/4/5 356/5/5
f 358/11/6 357/10/6 353/1/6 354/13/6
f 361/1/1 365/2/1 367/3/1 363/4/1
f 364/5/2 363/4/2 367/6/2 368/7/2
f 368/8/3 367/9/3 365/10/3 366/11/3
f 366/12/4 362/13/4 364/5/4 368/14/4
f 362/13/5 361/1/5 363/4/5 364/5/5
f 366/11/6 365/10/6 361/1/6 362/13/6
f 369/1/1 373/2/1 375/3/1 371/4/1
f 372/5/2 371/4/2 375/6/2 376/7/2
f 376/8/3 375/9/3 373/10/3 374/11/3
f 374/12/4 370/13/4 372/5/4 376/14/4
f 370/13/5 369/1/5 371/4/5 372/5/5
f 374/11/6 373/10/6 369/1/6 370/13/6
f 377/1/1 381/2/1 383/3/1 379/4/1
f 380/5/2 379/4/2 383/6/2 384/7/2
f 384/8/3 383/9/3 381/10/3 382/11/3
f 382/12/4 378/13/4 380/5/4 384/14/4
f 378/13/5 377/1/5 379/4/5 380/5/5
f 382/11/6 381/10/6 377/1/6 378/13/6
f 385/1/1 389/2/1 391/3/1 387/4/1
f 388/5/2 387/4/2 391/6/2 392/7/2
f 392/8/3 391/9/3 389/10/3 390/11/3
f 390/12/4 386/13/4 388/5/4 392/14/4
f 386/13/5 385/1/5 387/4/5 388/5/5
f 390/11/6 389/10/6 385/1/6 386/13/6
f 393/1/1 397/2/1 399/3/1 395/4/1
f 396/5/2 395/4/2 399/6/2 400/7/2
f 400/8/3 399/9/3 397/10/3 398/11/3
f 398/12/4 394/13/4 396/5/4 400/14/4
f 394/13/5 393/1/5 395/4/5 396/5/5
f 398/11/6 397/10/6 393/1/6 394/13/6
f 401/1/1 405/2/1 407/3/1 403/4/1
f 404/5/2 403/4/2 407/6/2 408/7/2
f 408/8/3 407/9/3 405/10/3 406/11/3
f 406/12/4 402/13/4 404/5/4 408/14/4
f 402/13/5 401/1/5 403/4/5 404/5/5
f 406/11/6 405/10/6 401/1/6 402/13/6
f 409/1/1 413/2/1 415/3/1 411/4/1
f 412/5/2 411/4/2 415/6/2 416/7/2
f 416/8/3 415/9/3 413/10/3 414/11/3
f 414/12/4 410/13/4 412/5/4 416/14/4
f 410/13/5 409/1/5 411/4/5 412/5/5
f 414/11/6 413/10/6 409/1/6 410/13/6
f 417/1/1 421/2/1 423/3/1 419/4/1
f 420/5/2 419/4/2 423/6/2 424/7/2
f 424/8/3 423/9/3 421/10/3 422/11/3
f 422/12/4 418/13/4 420/5/4 424/14/4
f 418/13/5 417/1/5 419/4/5 420/5/5
f 422/11/6 421/10/6 417/1/6 418/13/6
f 425/1/1 429/2/1 431/3/1 427/4/1
f 428/5/2 427/4/2 431/6/2 432/7/2
f 432/8/3 431/9/3 429/10/3 430/11/3
f 430/12/4 426/13/4 428/5/4 432/14/4
f 426/13/5 425/1/5 427/4/5 428/5/5
f 430/11/6 429/10/6 425/1/6 426/13/6
f 433/1/1 437/2/1 439/3/1 435/4/1
f 436/5/2 435/4/2 439/6/2 440/7/2
f 440/8/3 439/9/3 437/10/3 438/11/3
f 438/12/4 434/13/4 436/5/4 440/14/4
f 434/13/5 433/1/5 435/4/5 436/5/5
f 438/11/6 437/10/6 433/1/6 434/13/6
f 441/1/1 445/2/1 447/3/1 443/4/1
f 444/5/2 443/4/2 447/6/2 448/7/2
f 448/8/3 447/9/3 445/10/3 446/11/3
f 446/12/4 442/13/4 444/5/4 448/14/4
f 442/13/5 441/1/5 443/4/5 444/5/5
f 446/11/6 445/10/6 441/1/6 442/13/6
f 449/1/1 453/2/1 455/3/1 451/4/1
f 452/5/2 451/4/2 455/6/2 456/7/2
f 456/8/3 455/9/3 453/10/3 454/11/3
f 454/12/4 450/13/4 452/5/4 456/14/4
f 450/13/5 449/1/5 451/4/5 452/5/5
f 454/11/6 453/10/6 449/1/6 450/13/6
f 457/1/1 461/2/1 463/3/1 459/4/1
f 460/5/2 459/4/2 463/6/2 464/7/2
f 464/8/3 463/9/3 461/10/3 462/11/3
f 462/12/4 458/13/4 460/5/4 464/14/4
f 458/13/5 457/1/5 459/4/5 460/5/5
f 462/11/6 461/10/6 457/1/6 458/13/6
f 465/1/1 469/2/1 471/3/1 467/4/1
f 468/5/2 467/4/2 471/6/2 472/7/2
f 472/8/3 471/9/3 469/10/3 470/11/3
f 470/12/4 466/13/4 468/5/4 472/14/4
f 466/13/5 465/1/5 467/4/5 468/5/5
f 470/11/6 469/10/6 465/1/6 466/13/6
f 473/1/1 477/2/1 479/3/1 475/4/1
f 476/5/2 475/4/2 479/6/2 480/7/2
f 480/8/3 479/9/3 477/10/3 478/11/3
f 478/12/4 474/13/4 476/5/4 480/14/4
f 474/13/5 473/1/5 475/4/5 476/5/5
f 478/11/6 477/10/6 473/1/6 474/13/6
f 481/1/1 485/2/1 487/3/1 483/4/1
f 484/5/2 483/4/2 487/6/2 488/7/2
f 488/8/3 487/9/3 485/10/3 486/11/3
f 486/12/4 482/13/4 484/5/4 488/14/4
f 482/13/5 481/1/5 483/4/5 484/5/5
f 486/11/6 485/10/6 481/1/6 482/13/6
f 489/1/1 493/2/1 495/3/1 491/4/1
f 492/5/2 491/4/2 495/6/2 496/7/2
f 496/8/3 495/9/3 493/10/3 494/11/3
f 494/12/4 490/13/4 492/5/4 496/14/4
f 490/13/5 489/1/5 491/4/5 492/5/5
f 494/11/6 493/10/6 489/1/6 490/13/6
f 497/1/1 501/2/1 503/3/1 499/4/1
f 500/5/2 499/4/2 503/6/2 504/7/2
f 504/8/3 503/9/3 501/10/3 502/11/3
f 502/12/4 498/13/4 500/5/4 504/14/4
f 498/13/5 497/1/5 499/4/5 500/5/5
f 502/11/6 501/10/6 497/1/6 498/13/6
f 505/1/1 509/2/1 511/3/1 507/4/1
f 508/5/2 507/4/2 511/6/2 512/7/2
f 512/8/3 511/9/3 509/10/3 510/11/3
f 510/12/4 506/13/4 508/5/4 512/14/4
f 506/13/5 505/1/5 507/4/5 508/5/5
f 510/11/6 509/10/6 505/1/6 506/13/6
f 513/1/1 517/2/1 519/3/1 515/4/1
f 516/5/2 515/4/2 519/6/2 520/7/2
f 520/8/3 519/9/3 517/10/3 518/11/3
f 518/12/4 514/13/4 516/5/4 520/14/4
f 514/13/5 513/1/5 515/4/5 516/5/5
f 518/11/6 517/10/6 513/1/6 514/13/6
f 521/1/1 525/2/1 527/3/1 523/4/1
f 524/5/2 523/4/2 527/6/2 528/7/2
f 528/8/3 527/9/3 525/10/3 526/11/3
f 526/12/4 522/13/4 524/5/4 528/14/4
f 522/13/5 521/1/5 523/4/5 524/5/5
f 526/11/6 525/10/6 521/1/6 522/13/6
f 529/1/1 533/2/1 535/3/1 531/4/1
f 532/5/2 531/4/2 535/6/2 536/7/2
f 536/8/3 535/9/3 533/10/3 534/11/3
f 534/12/4 530/13/4 532/5/4 536/14/4
f 530/13/5 529/1/5 531/4/5 532/5/5
f 534/11/6 533/10/6 529/1/6 530/13/6
f 537/1/1 541/2/1 543/3/1 539/4/1
f 540/5/2 539/4/2 543/6/2 544/7/2
f 544/8/3 543/9/3 541/10/3 542/11/3
f 542/12/4 538/13/4 540/5/4 544/14/4
f 538/13/5 537/1/5 539/4/5 540/5/5
f 542/11/6 541/10/6 537/1/6 538/13/6
f 545/1/1 549/2/1 551/3/1 547/4/1
f 548/5/2 547/4/2 551/6/2 552/7/2
f 552/8/3 551/9/3 549/10/3 550/11/3
f 550/12/4 546/13/4 548/5/4 552/14/4
f 546/13/5 545/1/5 547/4/5 548/5/5
f 550/11/6 549/10/6 545/1/6 546/13/6
f 553/1/1 557/2/1 559/3/1 555/4/1
f 556/5/2 555/4/2 559/6/2 560/7/2
f 560/8/3 559/9/3 557/10/3 558/11/3
f 558/12/4 554/13/4 556/5/4 560/14/4
f 554/13/5 553/1/5 555/4/5 556/5/5
f 558/11/6 557/10/6 553/1/6 554/13/6
f 561/1/1 565/2/1 567/3/1 563/4/1
f 564/5/2 563/4/2 567/6/2 568/7/2
f 568/8/3 567/9/3 565/10/3 566/11/3
f 566/12/4 562/13/4 564/5/4 568/14/4
f 562/13/5 561/1/5 563/4/5 564/5/5
f 566/11/6 565/10/6 561/1/6 562/13/6
f 569/1/1 573/2/1 575/3/1 571/4/1
f 572/5/2 571/4/2 575/6/2 576/7/2
f 576/8/3 575/9/3 573/10/3 574/11/3
f 574/12/4 570/13/4 572/5/4 576/14/4
f 570/13/5 569/1/5 571/4/5 572/5/5
f 574/11/6 573/10/6 569/1/6 570/13/6
f 577/1/1 581/2/1 583/3/1 579/4/1
f 580/5/2 579/4/2 583/6/2 584/7/2
f 584/8/3 583/9/3 581/10/3 582/11/3
f 582/12/4 578/13/4 580/5/4 584/14/4
f 578/13/5 577/1/5 579/4/5 580/5/5
f 582/11/6 581/10/6 577/1/6 578/13/6
f 585/1/1 589/2/1 591/3/1 587/4/1
f 588/5/2 587/4/2 591/6/2 592/7/2
f 592/8/3 591/9/3 589/10/3 590/11/3
f 590/12/4 586/13/4 588/5/4 592/14/4
f 586/13/5 585/1/5 587/4/5 588/5/5
f 590/11/6 589/10/6 585/1/6 586/13/6
f 593/1/1 597/2/1 599/3/1 595/4/1
f 596/5/2 595/4/2 599/6/2 600/7/2
f 600/8/3 599/9/3 597/10/3 598/11/3
f 598/12/4 594/13/4 596/5/4 600/14/4
f 594/13/5 593/1/5 595/4/5 596/5/5
f 598/11/6 597/10/6 593/1/6 594/13/6
f 601/1/1 605/2/1 607/3/1 603/4/1
f 604/5/2 603/4/2 607/6/2 608/7/2
f 608/8/3 607/9/3 605/10/3 606/11/3
f 606/12/4 602/13/4 604/5/4 608/14/4
f 602/13/5 601/1/5 603/4/5 604/5/5
f 606/11/6 605/10/6 601/1/6 602/13/6
f 609/1/1 613/2/1 615/3/1 611/4/1
f 612/5/2 611/4/2 615/6/2 616/7/2
f 616/8/3 615/9/3 613/10/3 614/11/3
f 614/12/4 610/13/4 612/5/4 616/14/4
f 610/13/5 609/1/5 611/4/5 612/5/5
f 614/11/6 613/10/6 609/1/6 610/13/6
f 617/1/1 621/2/1 623/3/1 619/4/1
f 620/5/2 619/4/2 623/6/2 624/7/2
f 624/8/3 623/9/3 621/10/3 622/11/3
f 622/12/4 618/13/4 620/5/4 624/14/4
f 618/13/5 617/1/5 619/4/5 620/5/5
f 622/11/6 621/10/6 617/1/6 618/13/6
f 625/1/1 629/2/1 631/3/1 627/4/1
f 628/5/2 627/4/2 631/6/2 632/7/2
f 632/8/3 631/9/3 629/10/3 630/11/3
f 630/12/4 626/13/4 628/5/4 632/14/4
f 626/13/5 625/1/5 627/4/5 628/5/5
f 630/11/6 629/10/6 625/1/6 626/13/6
f 633/1/1 637/2/1 639/3/1 635/4/1
f 636/5/2 635/4/2 639/6/2 640/7/2
f 640/8/3 639/9/3 637/10/3 638/11/3
f 638/12/4 634/13/4 636/5/4 640/14/4
f 634/13/5 633/1/5 635/4/5 636/5/5
f 638/11/6 637/10/6 633/1/6 634/13/6
f 641/1/1 645/2/1 647/3/1 643/4/1
f 644/5/2 643/4/2 647/6/2 648/7/2
f 648/8/3 647/9/3 645/10/3 646/11/3
f 646/12/4 642/13/4 644/5/4 648/14/4
f 642/13/5 641/1/5 643/4/5 644/5/5
f 646/11/6 645/10/6 641/1/6 642/13/6
f 649/1/1 653/2/1 655/3/1 651/4/1
f 652/5/2 651/4/2 655/6/2 656/7/2
f 656/8/3 655/9/3 653/10/3 654/11/3
f 654/12/4 650/13/4 652/5/4 656/14/4
f 650/13/5 649/1/5 651/4/5 652/5/5
f 654/11/6 653/10/6 649/1/6 650/13/6
f 657/1/1 661/2/1 663/3/1 659/4/1
f 660/5/2 659/4/2 663/6/2 664/7/2
f 664/8/3 663/9/3 661/10/3 662/11/3
f 662/12/4 658/13/4 660/5/4 664/14/4
f 658/13/5 657/1/5 659/4/5 660/5/5
f 662/11/6 661/10/6 657/1/6 658/13/6
f 665/1/1 669/2/1 671/3/1 667/4/1
f 668/5/2 667/4/2 671/6/2 672/7/2
f 672/8/3 671/9/3 669/10/3 670/11/3
f 670/12/4 666/13/4 668/5/4 672/14/4
f 666/13/5 665/1/5 667/4/5 668/5/5
f 670/11/6 669/10/6 665/1/6 666/13/6
f 673/1/1 677/2/1 679/3/1 675/4/1
f 676/5/2 675/4/2 679/6/2 680/7/2
f 680/8/3 679/9/3 677/10/3 678/11/3
f 678/12/4 674/13/4 676/5/4 680/14/4
f 674/13/5 673/1/5 675/4/5 676/5/5
f 678/11/6 677/10/6 673/1/6 674/13/6
f 681/1/1 685/2/1 687/3/1 683/4/1
f 684/5/2 683/4/2 687/6/2 688/7/2
f 688/8/3 687/9/3 685/10/3 686/11/3
f 686/12/4 682/13/4 684/5/4 688/14/4
f 682/13/5 681/1/5 683/4/5 684/5/5
f 686/11/6 685/10/6 681/1/6 682/13/6
f 689/1/1 693/2/1 695/3/1 691/4/1
f 692/5/2 691/4/2 695/6/2 696/7/2
f 696/8/3 695/9/3 693/10/3 694/11/3
f 694/12/4 690/13/4 692/5/4 696/14/4
f 690/13/5 689/1/5 691/4/5 692/5/5
f 694/11/6 693/10/6 689/1/6 690/13/6
f 697/1/1 701/2/1 703/3/1 699/4/1
f 700/5/2 699/4/2 703/6/2 704/7/2
f 704/8/3 703/9/3 701/10/3 702/11/3
f 702/12/4 698/13/4 700/5/4 704/14/4
f 698/13/5 697/1/5 699/4/5 700/5/5
f 702/11/6 701/10/6 697/1/6 698/13/6
f 705/1/1 709/2/1 711/3/1 707/4/1
f 708/5/2 707/4/2 711/6/2 712/7/2
f 712/8/3 711/9/3 709/10/3 710/11/3
f 710/12/4 706/13/4 708/5/4 712/14/4
f 706/13/5 705/1/5 707/4/5 708/5/5
f 710/11/6 709/10/6 705/1/6 706/13/6
f 713/1/1 717/2/1 719/3/1 715/4/1
f 716/5/2 715/4/2 719/6/2 720/7/2
f 720/8/3 719/9/3 717/10/3 718/11/3
f 718/12/4 714/13/4 716/5/4 720/14/4
f 714/13/5 713/1/5 715/4/5 716/5/5
f 718/11/6 717/10/6 713/1/6 714/13/6
